<?xml version="1.0" encoding="UTF-8" standalone="no"?>
<!DOCTYPE svg PUBLIC "-//W3C//DTD SVG 1.1//EN" "http://www.w3.org/Graphics/SVG/1.1/DTD/svg11.dtd">
<svg width="100%" height="100%" viewBox="0 0 92 92" version="1.1" xmlns="http://www.w3.org/2000/svg" xmlns:xlink="http://www.w3.org/1999/xlink" xml:space="preserve" xmlns:serif="http://www.serif.com/" style="fill-rule:evenodd;clip-rule:evenodd;stroke-linejoin:round;stroke-miterlimit:1.41421;">
    <g transform="matrix(1,0,0,1,-1697,-802)">
        <g transform="matrix(3.24449,0,0,1.42024,462.308,1942.52)">
            <g id="чат" transform="matrix(0.331331,0,0,0.756911,-2295.68,-2292.1)">
                <circle cx="8119.88" cy="2010.2" r="42.109" style="fill:none;"/>
                <clipPath id="_clip1">
                    <circle cx="8119.88" cy="2010.2" r="42.109"/>
                </clipPath>
                <g clip-path="url(#_clip1)">
                    <g id="user" transform="matrix(4.35239,0,0,4.35239,8076.36,1974.3)">
                        <path d="M10.249,1.424L10.278,1.424L10.306,1.425L10.334,1.425L10.362,1.426L10.39,1.427L10.417,1.429L10.444,1.43L10.47,1.432L10.497,1.434L10.523,1.436L10.548,1.438L10.574,1.441L10.599,1.443L10.623,1.446L10.648,1.449L10.672,1.452L10.695,1.455L10.718,1.459L10.741,1.462L10.764,1.466L10.786,1.47L10.807,1.474L10.829,1.478L10.849,1.483L10.87,1.487L10.89,1.492L10.909,1.497L10.928,1.502L10.947,1.507L10.965,1.513L10.983,1.518L11,1.524L11.016,1.53L11.033,1.536L11.048,1.542L11.064,1.548L11.078,1.554L11.093,1.561L11.106,1.567L11.119,1.574L11.132,1.581L11.144,1.588L11.156,1.595L11.167,1.603L11.177,1.61L11.187,1.618L11.196,1.625L11.205,1.633L11.213,1.641L11.257,1.654L11.301,1.667L11.344,1.681L11.387,1.695L11.429,1.709L11.471,1.724L11.512,1.739L11.553,1.755L11.593,1.771L11.633,1.788L11.672,1.804L11.711,1.822L11.749,1.839L11.787,1.857L11.824,1.875L11.861,1.894L11.897,1.913L11.933,1.932L11.968,1.952L12.003,1.972L12.037,1.993L12.071,2.013L12.104,2.034L12.137,2.055L12.17,2.077L12.202,2.099L12.233,2.121L12.264,2.143L12.295,2.166L12.325,2.189L12.355,2.212L12.384,2.236L12.413,2.259L12.441,2.283L12.469,2.307L12.497,2.332L12.524,2.356L12.55,2.381L12.577,2.406L12.602,2.432L12.628,2.457L12.653,2.483L12.677,2.509L12.701,2.535L12.725,2.561L12.748,2.587L12.771,2.614L12.794,2.64L12.816,2.667L12.837,2.694L12.859,2.721L12.88,2.748L12.9,2.776L12.92,2.803L12.94,2.831L12.959,2.859L12.978,2.886L12.997,2.914L13.015,2.942L13.033,2.97L13.05,2.998L13.068,3.027L13.084,3.055L13.101,3.083L13.117,3.112L13.132,3.14L13.148,3.169L13.163,3.197L13.177,3.226L13.191,3.254L13.205,3.283L13.219,3.311L13.232,3.34L13.245,3.368L13.257,3.397L13.27,3.426L13.282,3.454L13.293,3.483L13.304,3.511L13.315,3.539L13.326,3.568L13.336,3.596L13.346,3.624L13.356,3.653L13.365,3.681L13.374,3.709L13.383,3.737L13.391,3.765L13.4,3.792L13.407,3.82L13.415,3.848L13.422,3.875L13.429,3.903L13.436,3.93L13.442,3.957L13.449,3.984L13.454,4.011L13.46,4.037L13.465,4.064L13.47,4.09L13.475,4.116L13.48,4.142L13.484,4.168L13.488,4.194L13.492,4.219L13.495,4.244L13.498,4.269L13.501,4.294L13.504,4.319L13.507,4.343L13.509,4.367L13.511,4.391L13.513,4.415L13.514,4.438L13.516,4.462L13.517,4.485L13.517,4.507L13.518,4.53L13.519,4.552L13.519,4.573L13.519,4.595L13.519,4.616L13.518,4.637L13.518,4.658L13.517,4.678L13.516,4.698L13.514,4.718L13.513,4.737L13.507,4.811L13.5,4.886L13.493,4.961L13.485,5.038L13.477,5.115L13.469,5.192L13.461,5.269L13.452,5.346L13.443,5.422L13.434,5.498L13.425,5.573L13.415,5.647L13.406,5.719L13.397,5.79L13.379,5.926L13.362,6.052L13.345,6.168L13.331,6.271L13.318,6.359L13.307,6.431L13.299,6.485L13.292,6.53L13.3,6.535L13.313,6.544L13.321,6.55L13.331,6.558L13.341,6.567L13.353,6.578L13.365,6.59L13.378,6.604L13.391,6.62L13.398,6.628L13.405,6.637L13.413,6.647L13.42,6.656L13.427,6.667L13.434,6.677L13.442,6.689L13.449,6.701L13.456,6.713L13.464,6.726L13.471,6.739L13.478,6.753L13.485,6.767L13.493,6.782L13.5,6.797L13.507,6.813L13.513,6.83L13.52,6.847L13.527,6.865L13.533,6.883L13.539,6.902L13.545,6.921L13.551,6.941L13.557,6.962L13.562,6.983L13.567,7.005L13.572,7.028L13.577,7.051L13.581,7.075L13.585,7.1L13.589,7.125L13.593,7.151L13.596,7.178L13.598,7.205L13.601,7.233L13.602,7.262L13.604,7.291L13.605,7.321L13.606,7.352L13.606,7.384L13.603,7.424L13.6,7.463L13.597,7.501L13.594,7.538L13.591,7.574L13.587,7.61L13.584,7.644L13.58,7.678L13.576,7.711L13.572,7.743L13.568,7.775L13.563,7.805L13.559,7.835L13.554,7.864L13.549,7.893L13.545,7.92L13.539,7.947L13.534,7.974L13.529,7.999L13.524,8.024L13.518,8.048L13.512,8.072L13.507,8.094L13.501,8.117L13.495,8.138L13.489,8.159L13.483,8.18L13.476,8.199L13.47,8.218L13.464,8.237L13.457,8.255L13.45,8.273L13.444,8.29L13.437,8.306L13.43,8.322L13.423,8.337L13.416,8.352L13.409,8.367L13.402,8.381L13.395,8.394L13.387,8.407L13.38,8.42L13.372,8.432L13.365,8.444L13.357,8.455L13.35,8.466L13.342,8.477L13.335,8.487L13.327,8.497L13.319,8.506L13.311,8.516L13.303,8.525L13.296,8.533L13.288,8.541L13.28,8.549L13.272,8.557L13.264,8.565L13.256,8.572L13.248,8.579L13.24,8.585L13.232,8.592L13.224,8.598L13.207,8.61L13.191,8.621L13.175,8.632L13.159,8.642L13.143,8.652L13.127,8.661L13.111,8.67L13.08,8.688L13.065,8.697L13.049,8.706L13.034,8.715L13.02,8.724L13.005,8.734L12.991,8.744L12.984,8.75L12.977,8.755L12.97,8.761L12.963,8.767L12.956,8.773L12.95,8.779L12.943,8.785L12.937,8.792L12.93,8.799L12.924,8.806L12.918,8.813L12.912,8.821L12.906,8.829L12.9,8.837L12.894,8.846L12.889,8.854L12.883,8.864L12.878,8.873L12.872,8.883L12.867,8.893L12.862,8.903L12.857,8.914L12.852,8.926L12.848,8.937L12.843,8.949L12.839,8.962L12.835,8.975L12.83,8.988L12.826,9.002L12.823,9.017L12.819,9.031L12.815,9.047L12.812,9.062L12.809,9.079L12.806,9.096L12.803,9.113L12.796,9.155L12.789,9.196L12.782,9.237L12.775,9.277L12.768,9.316L12.761,9.354L12.753,9.392L12.746,9.429L12.738,9.465L12.73,9.501L12.722,9.536L12.714,9.57L12.706,9.603L12.698,9.636L12.69,9.668L12.681,9.7L12.673,9.731L12.664,9.761L12.655,9.791L12.647,9.82L12.638,9.849L12.629,9.876L12.62,9.904L12.611,9.931L12.602,9.957L12.593,9.983L12.584,10.008L12.575,10.033L12.565,10.057L12.556,10.081L12.547,10.104L12.537,10.127L12.528,10.149L12.518,10.171L12.509,10.192L12.499,10.213L12.489,10.234L12.48,10.254L12.47,10.274L12.461,10.293L12.451,10.312L12.441,10.33L12.431,10.348L12.422,10.366L12.412,10.384L12.402,10.401L12.393,10.418L12.383,10.434L12.363,10.466L12.344,10.497L12.325,10.527L12.306,10.556L12.286,10.584L12.268,10.611L12.249,10.637L12.23,10.663L12.194,10.712L12.158,10.76L12.124,10.806L12.107,10.829L12.091,10.852L12.075,10.875L12.059,10.898L12.044,10.922L12.03,10.945L12.016,10.969L12.009,10.981L12.002,10.994L11.995,11.006L11.989,11.018L11.983,11.031L11.977,11.044L11.971,11.057L11.965,11.07L11.959,11.083L11.953,11.097L11.948,11.11L11.943,11.124L11.938,11.138L11.933,11.153L11.928,11.167L11.923,11.182L11.919,11.198L11.915,11.213L11.91,11.229L11.907,11.245L11.903,11.261L11.899,11.278L11.896,11.294L11.893,11.312L11.89,11.329L11.887,11.347L11.885,11.366L11.882,11.384L11.88,11.403L11.878,11.423L11.877,11.443L11.875,11.463L11.874,11.484L11.873,11.505L11.872,11.527L11.871,11.549L11.871,11.571L11.871,11.594L11.871,11.633L11.871,11.671L11.872,11.709L11.873,11.746L11.874,11.783L11.876,11.82L11.877,11.857L11.879,11.893L11.881,11.929L11.884,11.965L11.887,12.001L11.89,12.036L11.893,12.071L11.896,12.105L11.9,12.139L11.904,12.174L11.909,12.207L11.913,12.241L11.918,12.274L11.924,12.307L11.929,12.34L11.935,12.372L11.941,12.404L11.948,12.436L11.954,12.468L11.961,12.499L11.969,12.53L11.976,12.561L11.984,12.592L11.993,12.622L12.001,12.653L12.01,12.683L12.019,12.712L12.029,12.742L12.039,12.771L12.049,12.8L12.059,12.829L12.07,12.858L12.082,12.886L12.093,12.914L12.105,12.942L12.117,12.97L12.13,12.998L12.143,13.025L12.156,13.052L12.169,13.079L12.183,13.106L12.197,13.133L12.212,13.159L12.227,13.186L12.242,13.212L12.258,13.238L12.274,13.264L12.291,13.289L12.307,13.315L12.325,13.34L12.342,13.365L12.36,13.39L12.378,13.415L12.397,13.44L12.416,13.464L12.435,13.489L12.455,13.513L12.475,13.537L12.496,13.561L12.517,13.585L12.538,13.609L12.56,13.632L12.582,13.656L12.605,13.679L12.628,13.702L12.651,13.725L12.675,13.748L12.699,13.771L12.724,13.794L12.749,13.817L12.774,13.839L12.8,13.862L12.826,13.884L12.853,13.906L12.88,13.929L12.907,13.951L12.935,13.973L12.964,13.995L12.993,14.017L13.022,14.039L13.051,14.06L13.082,14.082L13.112,14.104L13.143,14.125L13.175,14.147L13.207,14.168L13.239,14.19L13.272,14.211L13.305,14.232L13.339,14.254L13.373,14.275L13.408,14.296L13.443,14.317L13.478,14.338L13.514,14.359L13.551,14.38L13.588,14.401L13.625,14.422L13.663,14.443L13.701,14.464L13.74,14.485L13.78,14.506L13.82,14.527L13.86,14.548L13.901,14.569L13.942,14.59L13.984,14.611L14.026,14.632L14.069,14.653L14.112,14.674L14.156,14.695L14.201,14.716L14.245,14.737L14.291,14.758L14.337,14.779L14.383,14.8L14.43,14.821L14.477,14.843L14.525,14.864L14.574,14.885L14.623,14.907L14.772,14.971L14.872,15.015L14.972,15.059L15.072,15.103L15.172,15.148L15.271,15.193L15.371,15.238L15.47,15.284L15.569,15.331L15.667,15.378L15.716,15.401L15.765,15.425L15.814,15.449L15.863,15.473L15.911,15.497L15.96,15.521L16.008,15.546L16.056,15.57L16.104,15.595L16.152,15.62L16.2,15.645L16.247,15.67L16.295,15.695L16.342,15.72L16.389,15.746L16.435,15.772L16.482,15.798L16.528,15.824L16.574,15.85L16.62,15.876L16.666,15.902L16.711,15.929L16.756,15.956L16.801,15.983L16.846,16.01L16.89,16.037L16.934,16.064L16.978,16.092L17.021,16.12L17.065,16.148L17.108,16.176L17.15,16.204L17.192,16.233L17.234,16.261L17.276,16.29L17.317,16.319L17.358,16.348L17.399,16.378L17.439,16.407L17.479,16.437L17.519,16.467L17.558,16.497L17.597,16.527L17.635,16.558L17.673,16.589L17.711,16.62L17.748,16.651L17.785,16.682L17.821,16.714L17.857,16.745L17.893,16.777L17.928,16.809L17.963,16.842L17.997,16.874L18.031,16.907L18.064,16.94L18.097,16.973L18.129,17.007L18.161,17.041L18.192,17.074L18.223,17.109L18.254,17.143L18.284,17.178L18.313,17.212L18.342,17.247L18.37,17.283L18.398,17.318L18.425,17.354L18.452,17.39L18.478,17.426L18.504,17.463L18.529,17.5L18.553,17.537L18.577,17.574L18.601,17.611L18.623,17.649L18.635,17.668L18.646,17.687L18.656,17.706L18.667,17.725L18.678,17.744L18.688,17.764L18.698,17.783L18.708,17.802L18.718,17.822L18.728,17.841L18.738,17.861L18.747,17.881L18.756,17.9L18.765,17.92L18.774,17.94L18.783,17.96L18.792,17.98L18.8,18L18.809,18.02L18.817,18.041L18.825,18.061L18.833,18.081L18.84,18.102L18.848,18.122L18.855,18.143L18.862,18.163L18.869,18.184L18.876,18.205L18.883,18.226L18.889,18.246L18.895,18.267L18.901,18.288L18.907,18.31L18.913,18.331L18.919,18.352L18.924,18.373L18.929,18.395L18.934,18.416L18.939,18.438L18.944,18.459L18.948,18.481L18.953,18.503L18.957,18.525L18.961,18.546L18.965,18.568L18.968,18.59L18.972,18.613L18.975,18.635L18.978,18.657L18.981,18.679L18.983,18.702L18.986,18.724L18.988,18.747L18.99,18.769L18.992,18.792L18.994,18.815L18.995,18.838L18.996,18.861L18.998,18.884L18.998,18.907L18.999,18.93L19,18.953L19,18.977L19,19L19,20L1,20L1,19L1,18.977L1,18.953L1.001,18.93L1.002,18.907L1.002,18.884L1.004,18.861L1.005,18.838L1.006,18.815L1.008,18.792L1.01,18.769L1.012,18.747L1.014,18.724L1.017,18.702L1.019,18.679L1.022,18.657L1.025,18.635L1.028,18.613L1.032,18.59L1.035,18.568L1.039,18.546L1.043,18.525L1.047,18.503L1.052,18.481L1.056,18.459L1.061,18.438L1.066,18.416L1.071,18.395L1.076,18.373L1.081,18.352L1.087,18.331L1.093,18.31L1.099,18.288L1.105,18.267L1.111,18.246L1.117,18.226L1.124,18.205L1.131,18.184L1.138,18.163L1.145,18.143L1.152,18.122L1.16,18.102L1.167,18.081L1.175,18.061L1.183,18.041L1.191,18.02L1.2,18L1.208,17.98L1.217,17.96L1.225,17.94L1.234,17.92L1.244,17.9L1.253,17.881L1.262,17.861L1.272,17.841L1.282,17.822L1.292,17.802L1.302,17.783L1.312,17.764L1.322,17.744L1.333,17.725L1.343,17.706L1.354,17.687L1.365,17.668L1.376,17.649L1.399,17.611L1.422,17.574L1.446,17.536L1.471,17.499L1.496,17.463L1.521,17.426L1.548,17.39L1.574,17.354L1.602,17.318L1.629,17.283L1.658,17.247L1.687,17.212L1.716,17.178L1.746,17.143L1.776,17.109L1.807,17.074L1.839,17.041L1.87,17.007L1.903,16.973L1.936,16.94L1.969,16.907L2.003,16.874L2.037,16.842L2.072,16.809L2.107,16.777L2.142,16.745L2.178,16.713L2.215,16.682L2.251,16.651L2.289,16.619L2.326,16.588L2.364,16.558L2.403,16.527L2.441,16.497L2.481,16.467L2.52,16.437L2.56,16.407L2.6,16.377L2.641,16.348L2.682,16.319L2.723,16.29L2.765,16.261L2.807,16.232L2.849,16.204L2.892,16.176L2.935,16.148L2.978,16.12L3.021,16.092L3.065,16.064L3.109,16.037L3.153,16.009L3.198,15.982L3.243,15.955L3.288,15.929L3.333,15.902L3.379,15.876L3.425,15.849L3.471,15.823L3.517,15.797L3.563,15.771L3.61,15.746L3.657,15.72L3.704,15.695L3.751,15.669L3.799,15.644L3.847,15.619L3.894,15.595L3.942,15.57L3.991,15.545L4.039,15.521L4.087,15.497L4.136,15.472L4.185,15.448L4.233,15.424L4.282,15.401L4.331,15.377L4.43,15.33L4.529,15.284L4.628,15.238L4.727,15.192L4.827,15.147L4.926,15.102L5.026,15.058L5.126,15.014L5.226,14.97L5.326,14.927L5.375,14.906L5.424,14.884L5.473,14.863L5.521,14.842L5.568,14.82L5.615,14.799L5.661,14.778L5.707,14.757L5.753,14.736L5.798,14.715L5.842,14.694L5.886,14.673L5.929,14.652L5.972,14.631L6.014,14.61L6.056,14.589L6.097,14.568L6.138,14.547L6.179,14.526L6.218,14.505L6.258,14.484L6.297,14.463L6.335,14.442L6.373,14.421L6.41,14.4L6.447,14.379L6.484,14.358L6.52,14.337L6.556,14.316L6.591,14.295L6.625,14.274L6.66,14.252L6.693,14.231L6.727,14.21L6.759,14.188L6.792,14.167L6.824,14.146L6.855,14.124L6.886,14.102L6.917,14.081L6.947,14.059L6.977,14.037L7.006,14.016L7.035,13.994L7.063,13.972L7.091,13.95L7.119,13.927L7.146,13.905L7.173,13.883L7.199,13.861L7.225,13.838L7.25,13.815L7.275,13.793L7.3,13.77L7.324,13.747L7.348,13.724L7.371,13.701L7.394,13.678L7.417,13.654L7.439,13.631L7.461,13.607L7.482,13.583L7.503,13.56L7.524,13.536L7.544,13.512L7.564,13.487L7.583,13.463L7.602,13.438L7.621,13.414L7.639,13.389L7.657,13.364L7.675,13.339L7.692,13.313L7.709,13.288L7.725,13.262L7.741,13.236L7.757,13.21L7.772,13.184L7.787,13.158L7.802,13.132L7.816,13.105L7.83,13.078L7.844,13.051L7.857,13.024L7.87,12.996L7.882,12.969L7.895,12.941L7.906,12.913L7.918,12.885L7.929,12.856L7.94,12.828L7.951,12.799L7.961,12.77L7.971,12.74L7.98,12.711L7.99,12.681L7.999,12.651L8.007,12.621L8.015,12.59L8.023,12.56L8.031,12.529L8.038,12.498L8.045,12.466L8.052,12.435L8.059,12.403L8.065,12.371L8.071,12.338L8.076,12.306L8.082,12.273L8.087,12.239L8.091,12.206L8.096,12.172L8.1,12.138L8.104,12.104L8.107,12.069L8.11,12.034L8.113,11.999L8.116,11.964L8.119,11.928L8.121,11.892L8.123,11.856L8.124,11.819L8.126,11.782L8.127,11.745L8.128,11.708L8.128,11.67L8.129,11.631L8.129,11.593L8.129,11.57L8.129,11.548L8.128,11.526L8.127,11.504L8.126,11.483L8.125,11.462L8.123,11.442L8.122,11.422L8.12,11.402L8.118,11.383L8.115,11.365L8.113,11.346L8.11,11.328L8.107,11.311L8.104,11.293L8.101,11.277L8.097,11.26L8.093,11.244L8.089,11.228L8.085,11.212L8.081,11.197L8.077,11.181L8.072,11.166L8.067,11.152L8.062,11.137L8.057,11.123L8.052,11.109L8.046,11.096L8.041,11.082L8.035,11.069L8.029,11.056L8.023,11.043L8.017,11.03L8.011,11.017L8.004,11.005L7.998,10.993L7.991,10.98L7.984,10.968L7.97,10.944L7.955,10.921L7.94,10.897L7.925,10.874L7.909,10.851L7.892,10.828L7.876,10.805L7.841,10.759L7.806,10.711L7.769,10.662L7.75,10.636L7.732,10.61L7.713,10.583L7.693,10.555L7.674,10.526L7.655,10.496L7.635,10.465L7.616,10.433L7.606,10.417L7.597,10.4L7.587,10.383L7.577,10.365L7.567,10.347L7.558,10.329L7.548,10.311L7.538,10.292L7.529,10.273L7.519,10.253L7.509,10.233L7.5,10.212L7.49,10.191L7.481,10.17L7.471,10.148L7.462,10.126L7.452,10.103L7.443,10.08L7.433,10.056L7.424,10.032L7.415,10.007L7.406,9.982L7.397,9.956L7.388,9.93L7.379,9.903L7.37,9.875L7.361,9.848L7.352,9.819L7.343,9.79L7.335,9.76L7.326,9.73L7.318,9.699L7.309,9.667L7.301,9.635L7.293,9.602L7.285,9.569L7.277,9.535L7.269,9.5L7.261,9.464L7.253,9.428L7.246,9.391L7.238,9.353L7.231,9.315L7.224,9.276L7.217,9.236L7.21,9.195L7.203,9.154L7.196,9.112L7.193,9.095L7.19,9.078L7.187,9.061L7.184,9.046L7.18,9.03L7.176,9.016L7.173,9.001L7.169,8.987L7.165,8.974L7.16,8.961L7.156,8.948L7.152,8.936L7.147,8.925L7.142,8.913L7.137,8.902L7.132,8.892L7.127,8.882L7.122,8.872L7.116,8.863L7.111,8.853L7.105,8.845L7.099,8.836L7.094,8.828L7.088,8.82L7.082,8.812L7.075,8.805L7.069,8.798L7.063,8.791L7.056,8.784L7.05,8.778L7.043,8.772L7.036,8.766L7.03,8.76L7.023,8.754L7.016,8.749L7.009,8.743L6.994,8.733L6.98,8.723L6.965,8.714L6.95,8.705L6.935,8.696L6.919,8.687L6.888,8.669L6.872,8.66L6.856,8.651L6.84,8.641L6.824,8.631L6.808,8.62L6.792,8.609L6.776,8.597L6.768,8.591L6.76,8.584L6.752,8.578L6.744,8.571L6.736,8.564L6.728,8.556L6.72,8.548L6.712,8.54L6.704,8.532L6.696,8.524L6.688,8.515L6.681,8.505L6.673,8.496L6.665,8.486L6.658,8.476L6.65,8.465L6.642,8.454L6.635,8.443L6.627,8.431L6.62,8.419L6.613,8.406L6.605,8.393L6.598,8.38L6.591,8.366L6.584,8.351L6.577,8.336L6.57,8.321L6.563,8.305L6.556,8.289L6.55,8.272L6.543,8.254L6.536,8.236L6.53,8.217L6.524,8.198L6.517,8.179L6.511,8.158L6.505,8.137L6.499,8.116L6.493,8.093L6.488,8.071L6.482,8.047L6.477,8.023L6.471,7.998L6.466,7.973L6.461,7.946L6.456,7.919L6.451,7.892L6.446,7.863L6.442,7.834L6.437,7.804L6.433,7.774L6.429,7.742L6.425,7.71L6.421,7.677L6.417,7.643L6.413,7.609L6.41,7.573L6.407,7.537L6.403,7.5L6.4,7.462L6.398,7.423L6.395,7.383L6.395,7.351L6.396,7.32L6.397,7.29L6.399,7.261L6.4,7.232L6.403,7.204L6.405,7.177L6.408,7.15L6.412,7.124L6.416,7.099L6.42,7.074L6.424,7.05L6.428,7.027L6.433,7.004L6.439,6.982L6.444,6.961L6.45,6.94L6.455,6.92L6.461,6.901L6.468,6.882L6.474,6.864L6.481,6.846L6.487,6.829L6.494,6.812L6.501,6.796L6.508,6.781L6.515,6.766L6.522,6.752L6.53,6.738L6.537,6.725L6.544,6.712L6.551,6.7L6.559,6.688L6.566,6.676L6.573,6.666L6.581,6.655L6.588,6.646L6.595,6.636L6.602,6.627L6.609,6.619L6.616,6.611L6.622,6.603L6.629,6.596L6.635,6.589L6.648,6.577L6.659,6.566L6.67,6.557L6.679,6.549L6.687,6.543L6.695,6.538L6.7,6.534L6.704,6.531L6.708,6.529L6.701,6.484L6.693,6.43L6.682,6.358L6.669,6.27L6.655,6.167L6.638,6.051L6.621,5.925L6.603,5.789L6.594,5.718L6.584,5.646L6.575,5.572L6.566,5.497L6.557,5.421L6.548,5.345L6.539,5.268L6.53,5.191L6.522,5.114L6.514,5.037L6.506,4.96L6.499,4.885L6.492,4.81L6.486,4.736L6.484,4.706L6.482,4.675L6.481,4.643L6.481,4.61L6.48,4.577L6.481,4.543L6.482,4.508L6.483,4.473L6.485,4.437L6.488,4.4L6.491,4.363L6.495,4.325L6.499,4.287L6.504,4.248L6.509,4.209L6.516,4.169L6.522,4.129L6.53,4.088L6.538,4.047L6.547,4.005L6.556,3.963L6.566,3.921L6.577,3.879L6.588,3.836L6.6,3.793L6.613,3.75L6.627,3.706L6.634,3.684L6.641,3.662L6.648,3.64L6.656,3.618L6.664,3.596L6.672,3.574L6.68,3.552L6.688,3.53L6.697,3.508L6.706,3.486L6.715,3.463L6.724,3.441L6.733,3.419L6.743,3.397L6.753,3.374L6.762,3.352L6.773,3.33L6.783,3.308L6.794,3.285L6.804,3.263L6.815,3.241L6.826,3.219L6.838,3.196L6.849,3.174L6.861,3.152L6.873,3.13L6.886,3.108L6.898,3.085L6.911,3.063L6.924,3.041L6.937,3.019L6.95,2.997L6.964,2.975L6.977,2.953L6.991,2.932L7.006,2.91L7.02,2.888L7.035,2.866L7.05,2.845L7.065,2.823L7.08,2.802L7.096,2.78L7.112,2.759L7.128,2.737L7.144,2.716L7.161,2.695L7.177,2.674L7.194,2.653L7.212,2.632L7.229,2.611L7.247,2.59L7.265,2.57L7.283,2.549L7.302,2.529L7.32,2.509L7.339,2.488L7.359,2.468L7.378,2.448L7.398,2.428L7.418,2.409L7.438,2.389L7.458,2.369L7.479,2.35L7.5,2.331L7.522,2.312L7.543,2.293L7.565,2.274L7.587,2.255L7.609,2.237L7.632,2.218L7.655,2.2L7.678,2.182L7.701,2.164L7.725,2.146L7.753,2.126L7.781,2.106L7.81,2.087L7.839,2.068L7.868,2.049L7.898,2.031L7.927,2.012L7.957,1.995L7.987,1.977L8.018,1.96L8.048,1.943L8.079,1.926L8.11,1.91L8.141,1.894L8.172,1.878L8.204,1.863L8.235,1.848L8.267,1.833L8.299,1.818L8.331,1.804L8.364,1.79L8.396,1.777L8.429,1.763L8.461,1.75L8.494,1.737L8.527,1.725L8.56,1.713L8.593,1.701L8.626,1.689L8.66,1.678L8.693,1.666L8.726,1.656L8.76,1.645L8.794,1.635L8.827,1.625L8.861,1.615L8.894,1.605L8.928,1.596L8.962,1.587L8.996,1.578L9.029,1.57L9.063,1.562L9.097,1.554L9.13,1.546L9.164,1.539L9.198,1.531L9.231,1.524L9.265,1.518L9.299,1.511L9.332,1.505L9.366,1.499L9.399,1.493L9.432,1.488L9.465,1.483L9.499,1.478L9.532,1.473L9.564,1.468L9.597,1.464L9.63,1.46L9.663,1.456L9.695,1.452L9.727,1.449L9.759,1.446L9.791,1.443L9.823,1.44L9.855,1.437L9.887,1.435L9.918,1.433L9.949,1.431L9.98,1.429L10.011,1.428L10.041,1.427L10.072,1.426L10.102,1.425L10.132,1.424L10.161,1.424L10.191,1.424L10.22,1.424L10.249,1.424ZM10.193,1.851L10.166,1.851L10.139,1.852L10.112,1.852L10.085,1.853L10.057,1.854L10.03,1.855L10.002,1.856L9.973,1.858L9.945,1.86L9.916,1.862L9.888,1.864L9.859,1.866L9.83,1.869L9.8,1.871L9.771,1.874L9.741,1.877L9.712,1.881L9.682,1.884L9.652,1.888L9.622,1.892L9.592,1.896L9.561,1.9L9.531,1.905L9.5,1.91L9.47,1.915L9.439,1.92L9.409,1.926L9.378,1.931L9.347,1.937L9.317,1.943L9.286,1.95L9.255,1.956L9.224,1.963L9.193,1.97L9.163,1.977L9.132,1.985L9.101,1.993L9.07,2.001L9.04,2.009L9.009,2.017L8.979,2.026L8.948,2.035L8.917,2.044L8.887,2.053L8.857,2.063L8.827,2.072L8.797,2.083L8.767,2.093L8.737,2.103L8.707,2.114L8.677,2.125L8.648,2.136L8.618,2.148L8.589,2.159L8.56,2.171L8.531,2.183L8.503,2.196L8.474,2.209L8.446,2.221L8.418,2.234L8.39,2.248L8.362,2.261L8.334,2.275L8.307,2.289L8.28,2.303L8.253,2.318L8.227,2.333L8.2,2.348L8.174,2.363L8.148,2.378L8.123,2.394L8.097,2.41L8.072,2.426L8.048,2.442L8.023,2.459L7.999,2.475L7.978,2.491L7.96,2.504L7.94,2.52L7.92,2.535L7.9,2.551L7.881,2.567L7.862,2.583L7.843,2.599L7.824,2.615L7.806,2.631L7.787,2.647L7.769,2.664L7.752,2.681L7.734,2.697L7.717,2.714L7.7,2.731L7.683,2.748L7.666,2.765L7.649,2.782L7.633,2.8L7.617,2.817L7.601,2.835L7.586,2.852L7.57,2.87L7.555,2.888L7.54,2.906L7.525,2.924L7.51,2.942L7.496,2.96L7.482,2.978L7.468,2.996L7.454,3.014L7.44,3.033L7.427,3.052L7.414,3.07L7.401,3.089L7.388,3.107L7.375,3.126L7.363,3.145L7.35,3.163L7.338,3.182L7.326,3.201L7.315,3.22L7.303,3.239L7.292,3.258L7.281,3.278L7.27,3.297L7.259,3.316L7.248,3.335L7.238,3.354L7.228,3.373L7.218,3.393L7.208,3.412L7.198,3.431L7.188,3.451L7.179,3.47L7.17,3.489L7.161,3.509L7.152,3.528L7.143,3.547L7.135,3.567L7.127,3.586L7.119,3.605L7.111,3.625L7.103,3.644L7.095,3.663L7.088,3.683L7.08,3.702L7.073,3.721L7.066,3.741L7.059,3.76L7.053,3.779L7.046,3.798L7.04,3.817L7.034,3.835L7.022,3.874L7.011,3.912L7,3.949L6.99,3.986L6.981,4.023L6.972,4.06L6.964,4.096L6.957,4.132L6.95,4.167L6.943,4.202L6.938,4.237L6.932,4.271L6.928,4.305L6.923,4.338L6.92,4.37L6.917,4.402L6.914,4.433L6.912,4.464L6.91,4.494L6.909,4.523L6.908,4.551L6.908,4.579L6.908,4.605L6.908,4.631L6.909,4.656L6.911,4.68L6.912,4.703L6.918,4.772L6.925,4.845L6.932,4.919L6.939,4.993L6.947,5.069L6.955,5.144L6.964,5.22L6.972,5.295L6.981,5.371L6.99,5.445L6.999,5.519L7.008,5.592L7.018,5.663L7.027,5.733L7.045,5.867L7.062,5.993L7.078,6.107L7.092,6.209L7.105,6.296L7.116,6.367L7.124,6.42L7.174,6.75L6.942,6.887L6.941,6.889L6.939,6.89L6.937,6.893L6.935,6.895L6.933,6.898L6.931,6.901L6.928,6.905L6.925,6.909L6.922,6.913L6.919,6.917L6.916,6.923L6.913,6.928L6.91,6.934L6.906,6.94L6.903,6.947L6.899,6.954L6.895,6.962L6.892,6.97L6.888,6.979L6.884,6.988L6.88,6.998L6.876,7.008L6.872,7.019L6.869,7.031L6.865,7.043L6.861,7.056L6.857,7.069L6.854,7.083L6.85,7.098L6.847,7.114L6.844,7.13L6.841,7.147L6.838,7.164L6.835,7.183L6.833,7.202L6.831,7.222L6.828,7.242L6.827,7.264L6.825,7.286L6.824,7.309L6.823,7.333L6.823,7.357L6.823,7.37L6.824,7.393L6.827,7.43L6.829,7.465L6.832,7.5L6.835,7.533L6.839,7.566L6.842,7.598L6.845,7.628L6.849,7.658L6.853,7.687L6.856,7.715L6.86,7.743L6.864,7.769L6.868,7.795L6.872,7.819L6.876,7.843L6.881,7.866L6.885,7.888L6.89,7.91L6.894,7.93L6.898,7.95L6.903,7.969L6.908,7.987L6.912,8.005L6.917,8.021L6.921,8.037L6.926,8.053L6.93,8.067L6.935,8.081L6.939,8.094L6.944,8.106L6.948,8.118L6.953,8.129L6.961,8.149L6.969,8.166L6.977,8.181L6.984,8.195L6.991,8.206L6.999,8.219L7.01,8.232L7.02,8.244L7.031,8.254L7.042,8.262L7.056,8.272L7.065,8.277L7.075,8.283L7.087,8.29L7.1,8.298L7.131,8.316L7.15,8.326L7.17,8.338L7.191,8.351L7.214,8.366L7.239,8.382L7.263,8.4L7.278,8.411L7.291,8.421L7.305,8.432L7.318,8.444L7.332,8.457L7.346,8.47L7.36,8.483L7.373,8.497L7.386,8.511L7.4,8.527L7.413,8.542L7.426,8.559L7.438,8.575L7.45,8.592L7.462,8.61L7.474,8.628L7.485,8.646L7.495,8.664L7.506,8.684L7.516,8.703L7.525,8.722L7.534,8.742L7.542,8.762L7.551,8.783L7.558,8.803L7.565,8.824L7.572,8.845L7.579,8.866L7.585,8.888L7.591,8.91L7.596,8.932L7.601,8.954L7.606,8.977L7.61,8.999L7.614,9.022L7.618,9.044L7.625,9.085L7.631,9.124L7.638,9.162L7.644,9.199L7.651,9.236L7.658,9.272L7.665,9.306L7.672,9.341L7.679,9.374L7.686,9.407L7.693,9.438L7.701,9.47L7.708,9.5L7.715,9.53L7.723,9.559L7.73,9.588L7.738,9.615L7.746,9.642L7.753,9.669L7.761,9.695L7.769,9.72L7.777,9.745L7.784,9.769L7.792,9.792L7.8,9.815L7.808,9.837L7.816,9.859L7.824,9.881L7.832,9.901L7.84,9.921L7.848,9.941L7.856,9.96L7.864,9.979L7.872,9.997L7.88,10.015L7.888,10.033L7.896,10.05L7.904,10.067L7.912,10.083L7.92,10.099L7.927,10.114L7.935,10.129L7.944,10.144L7.951,10.159L7.967,10.187L7.975,10.201L7.983,10.213L7.999,10.241L8.015,10.266L8.031,10.291L8.047,10.315L8.064,10.339L8.08,10.362L8.097,10.386L8.113,10.408L8.149,10.456L8.184,10.504L8.221,10.553L8.24,10.579L8.259,10.606L8.278,10.634L8.297,10.662L8.316,10.692L8.336,10.723L8.354,10.754L8.364,10.771L8.373,10.789L8.382,10.806L8.391,10.823L8.4,10.841L8.409,10.859L8.418,10.878L8.426,10.897L8.435,10.916L8.442,10.935L8.45,10.955L8.458,10.975L8.465,10.995L8.473,11.016L8.479,11.037L8.486,11.058L8.492,11.079L8.498,11.101L8.504,11.123L8.509,11.146L8.515,11.168L8.519,11.191L8.524,11.214L8.528,11.237L8.532,11.261L8.536,11.285L8.539,11.309L8.542,11.333L8.545,11.358L8.547,11.383L8.549,11.408L8.551,11.433L8.553,11.459L8.554,11.485L8.555,11.512L8.556,11.539L8.556,11.566L8.556,11.593L8.556,11.634L8.556,11.675L8.555,11.716L8.554,11.757L8.553,11.797L8.552,11.837L8.55,11.877L8.548,11.916L8.545,11.956L8.543,11.995L8.54,12.034L8.536,12.073L8.533,12.111L8.529,12.15L8.524,12.188L8.52,12.226L8.515,12.263L8.51,12.301L8.504,12.338L8.498,12.375L8.492,12.412L8.485,12.449L8.478,12.485L8.471,12.522L8.463,12.558L8.455,12.594L8.447,12.63L8.438,12.665L8.428,12.701L8.419,12.736L8.409,12.771L8.398,12.806L8.388,12.84L8.377,12.875L8.365,12.909L8.353,12.943L8.341,12.977L8.328,13.01L8.315,13.044L8.301,13.077L8.287,13.11L8.273,13.143L8.258,13.176L8.243,13.208L8.227,13.241L8.211,13.272L8.194,13.304L8.177,13.336L8.16,13.367L8.142,13.399L8.124,13.429L8.105,13.46L8.086,13.491L8.067,13.521L8.047,13.551L8.027,13.581L8.006,13.611L7.985,13.64L7.963,13.669L7.941,13.698L7.919,13.727L7.896,13.756L7.873,13.784L7.85,13.812L7.826,13.84L7.801,13.868L7.776,13.895L7.751,13.923L7.726,13.95L7.7,13.976L7.673,14.003L7.647,14.03L7.619,14.056L7.592,14.082L7.564,14.108L7.536,14.134L7.507,14.159L7.478,14.184L7.448,14.21L7.418,14.234L7.388,14.259L7.357,14.284L7.326,14.308L7.295,14.333L7.263,14.357L7.231,14.381L7.198,14.405L7.165,14.429L7.132,14.452L7.098,14.476L7.064,14.499L7.029,14.523L6.994,14.546L6.958,14.569L6.923,14.592L6.886,14.615L6.85,14.638L6.813,14.66L6.775,14.683L6.737,14.705L6.699,14.728L6.66,14.75L6.621,14.772L6.581,14.795L6.541,14.817L6.501,14.839L6.46,14.861L6.418,14.883L6.376,14.905L6.334,14.927L6.292,14.949L6.248,14.971L6.205,14.993L6.161,15.014L6.116,15.036L6.071,15.058L6.026,15.08L5.98,15.101L5.934,15.123L5.887,15.145L5.839,15.167L5.792,15.189L5.744,15.21L5.695,15.232L5.646,15.254L5.596,15.276L5.546,15.298L5.496,15.319L5.396,15.362L5.298,15.405L5.199,15.449L5.101,15.492L5.002,15.536L4.904,15.581L4.807,15.626L4.71,15.671L4.613,15.716L4.516,15.762L4.469,15.785L4.421,15.809L4.373,15.832L4.326,15.855L4.278,15.879L4.231,15.903L4.184,15.926L4.137,15.95L4.091,15.974L4.044,15.998L3.998,16.023L3.952,16.047L3.906,16.071L3.861,16.096L3.815,16.121L3.77,16.145L3.726,16.17L3.681,16.195L3.637,16.221L3.592,16.246L3.549,16.271L3.505,16.297L3.462,16.322L3.419,16.348L3.376,16.374L3.334,16.4L3.292,16.426L3.25,16.453L3.209,16.479L3.168,16.506L3.127,16.532L3.087,16.559L3.047,16.586L3.007,16.613L2.968,16.64L2.929,16.668L2.89,16.695L2.852,16.723L2.814,16.751L2.777,16.778L2.74,16.806L2.703,16.835L2.667,16.863L2.632,16.891L2.596,16.92L2.561,16.948L2.527,16.977L2.493,17.006L2.46,17.035L2.427,17.064L2.394,17.094L2.362,17.123L2.33,17.153L2.299,17.182L2.268,17.212L2.238,17.242L2.208,17.272L2.179,17.302L2.151,17.333L2.122,17.363L2.095,17.394L2.068,17.424L2.041,17.455L2.015,17.486L1.989,17.517L1.964,17.548L1.94,17.58L1.916,17.611L1.893,17.642L1.87,17.674L1.847,17.706L1.826,17.738L1.804,17.77L1.784,17.802L1.764,17.834L1.744,17.867L1.735,17.883L1.725,17.899L1.716,17.916L1.707,17.932L1.698,17.948L1.689,17.965L1.68,17.981L1.672,17.998L1.663,18.014L1.655,18.031L1.647,18.048L1.639,18.064L1.631,18.081L1.623,18.098L1.616,18.114L1.609,18.131L1.601,18.148L1.594,18.165L1.587,18.182L1.58,18.199L1.574,18.216L1.567,18.233L1.561,18.25L1.554,18.267L1.548,18.284L1.542,18.302L1.536,18.319L1.531,18.336L1.525,18.353L1.52,18.371L1.515,18.388L1.51,18.406L1.505,18.423L1.5,18.441L1.495,18.459L1.491,18.476L1.486,18.494L1.482,18.512L1.478,18.53L1.474,18.548L1.47,18.566L1.467,18.584L1.463,18.602L1.46,18.621L1.457,18.639L1.454,18.657L1.451,18.675L1.448,18.694L1.446,18.712L1.444,18.731L1.441,18.75L1.439,18.769L1.437,18.788L1.436,18.806L1.434,18.825L1.433,18.845L1.432,18.864L1.43,18.883L1.43,18.902L1.429,18.922L1.428,18.941L1.428,18.96L1.428,18.98L1.427,19.001L1.427,19.573L18.573,19.573L18.573,19.001L18.572,18.98L18.572,18.961L18.572,18.941L18.571,18.922L18.57,18.902L18.57,18.883L18.568,18.864L18.567,18.845L18.566,18.825L18.564,18.807L18.562,18.788L18.561,18.769L18.559,18.75L18.556,18.731L18.554,18.713L18.551,18.694L18.549,18.675L18.546,18.657L18.543,18.639L18.54,18.621L18.537,18.602L18.533,18.584L18.53,18.566L18.526,18.548L18.522,18.53L18.518,18.512L18.514,18.494L18.509,18.476L18.505,18.459L18.5,18.441L18.495,18.423L18.49,18.406L18.485,18.388L18.48,18.371L18.475,18.353L18.469,18.336L18.464,18.319L18.458,18.301L18.452,18.284L18.446,18.267L18.439,18.25L18.433,18.233L18.426,18.216L18.42,18.199L18.413,18.182L18.406,18.165L18.399,18.148L18.391,18.131L18.384,18.114L18.376,18.098L18.369,18.081L18.361,18.064L18.353,18.048L18.345,18.031L18.337,18.014L18.328,17.998L18.32,17.982L18.311,17.965L18.302,17.948L18.293,17.932L18.284,17.916L18.275,17.899L18.265,17.883L18.256,17.868L18.236,17.834L18.216,17.802L18.195,17.77L18.174,17.738L18.152,17.706L18.13,17.674L18.107,17.643L18.084,17.611L18.06,17.58L18.035,17.548L18.01,17.517L17.985,17.486L17.959,17.455L17.932,17.424L17.905,17.394L17.877,17.363L17.849,17.333L17.82,17.302L17.791,17.272L17.761,17.242L17.731,17.212L17.701,17.183L17.669,17.153L17.638,17.123L17.606,17.094L17.573,17.065L17.54,17.035L17.506,17.006L17.472,16.977L17.438,16.949L17.403,16.92L17.368,16.891L17.332,16.863L17.296,16.835L17.259,16.807L17.222,16.779L17.185,16.751L17.147,16.723L17.109,16.696L17.071,16.668L17.032,16.641L16.992,16.614L16.953,16.586L16.913,16.56L16.872,16.533L16.831,16.506L16.79,16.479L16.749,16.453L16.707,16.427L16.665,16.401L16.623,16.375L16.58,16.349L16.537,16.323L16.494,16.297L16.45,16.272L16.407,16.246L16.362,16.221L16.318,16.196L16.274,16.171L16.229,16.146L16.184,16.121L16.138,16.096L16.093,16.072L16.047,16.047L16.001,16.023L15.955,15.999L15.908,15.975L15.861,15.951L15.815,15.927L15.768,15.903L15.72,15.88L15.673,15.856L15.626,15.833L15.578,15.809L15.53,15.786L15.482,15.763L15.386,15.717L15.289,15.672L15.192,15.626L15.094,15.582L14.996,15.537L14.898,15.493L14.799,15.45L14.701,15.406L14.602,15.363L14.502,15.32L14.452,15.299L14.402,15.277L14.352,15.255L14.303,15.233L14.254,15.211L14.206,15.19L14.159,15.168L14.111,15.146L14.064,15.124L14.018,15.102L13.972,15.081L13.927,15.059L13.882,15.037L13.837,15.015L13.793,14.994L13.75,14.972L13.707,14.95L13.664,14.928L13.622,14.906L13.58,14.884L13.539,14.862L13.498,14.84L13.457,14.818L13.417,14.796L13.377,14.773L13.338,14.751L13.3,14.729L13.261,14.706L13.223,14.684L13.186,14.661L13.149,14.639L13.112,14.616L13.076,14.593L13.04,14.57L13.004,14.547L12.969,14.524L12.935,14.501L12.901,14.477L12.867,14.454L12.833,14.43L12.8,14.406L12.768,14.382L12.735,14.358L12.704,14.334L12.672,14.31L12.641,14.285L12.61,14.261L12.58,14.236L12.55,14.211L12.521,14.186L12.492,14.16L12.463,14.135L12.435,14.109L12.407,14.083L12.379,14.057L12.352,14.031L12.325,14.004L12.299,13.978L12.273,13.951L12.248,13.924L12.222,13.897L12.198,13.869L12.173,13.841L12.149,13.813L12.126,13.785L12.103,13.757L12.08,13.728L12.058,13.7L12.036,13.671L12.014,13.641L11.993,13.612L11.972,13.582L11.952,13.552L11.932,13.522L11.913,13.492L11.894,13.461L11.875,13.431L11.857,13.4L11.839,13.369L11.822,13.337L11.805,13.306L11.788,13.274L11.772,13.242L11.757,13.209L11.741,13.177L11.727,13.144L11.712,13.111L11.698,13.078L11.685,13.045L11.672,13.012L11.659,12.978L11.646,12.944L11.635,12.91L11.623,12.876L11.612,12.841L11.601,12.807L11.591,12.772L11.581,12.737L11.571,12.702L11.562,12.666L11.553,12.631L11.545,12.595L11.537,12.559L11.529,12.523L11.522,12.486L11.515,12.45L11.508,12.413L11.502,12.376L11.496,12.339L11.49,12.302L11.485,12.265L11.48,12.227L11.476,12.189L11.471,12.151L11.467,12.112L11.464,12.074L11.46,12.035L11.457,11.996L11.455,11.957L11.452,11.918L11.45,11.878L11.448,11.838L11.447,11.798L11.446,11.758L11.445,11.717L11.444,11.676L11.444,11.635L11.444,11.594L11.444,11.567L11.444,11.54L11.445,11.513L11.446,11.486L11.447,11.46L11.449,11.435L11.45,11.409L11.453,11.384L11.455,11.359L11.458,11.334L11.461,11.31L11.464,11.286L11.468,11.262L11.472,11.239L11.476,11.215L11.481,11.192L11.485,11.17L11.49,11.147L11.496,11.124L11.502,11.102L11.508,11.081L11.514,11.059L11.52,11.038L11.527,11.017L11.534,10.997L11.542,10.976L11.549,10.956L11.557,10.936L11.565,10.917L11.573,10.898L11.582,10.879L11.59,10.86L11.599,10.843L11.608,10.825L11.617,10.807L11.626,10.79L11.636,10.773L11.645,10.756L11.664,10.724L11.683,10.693L11.702,10.663L11.721,10.635L11.74,10.607L11.759,10.58L11.779,10.554L11.815,10.505L11.85,10.457L11.885,10.41L11.902,10.387L11.919,10.364L11.935,10.34L11.951,10.316L11.968,10.292L11.984,10.267L12,10.242L12.016,10.215L12.024,10.202L12.031,10.188L12.039,10.174L12.047,10.16L12.055,10.145L12.063,10.131L12.071,10.115L12.079,10.1L12.087,10.084L12.095,10.068L12.103,10.051L12.111,10.034L12.119,10.016L12.127,9.998L12.135,9.98L12.143,9.962L12.151,9.942L12.159,9.922L12.167,9.902L12.175,9.882L12.183,9.86L12.191,9.839L12.199,9.816L12.206,9.793L12.214,9.77L12.222,9.746L12.23,9.721L12.238,9.696L12.245,9.67L12.253,9.644L12.261,9.616L12.268,9.588L12.276,9.56L12.283,9.531L12.291,9.501L12.298,9.471L12.306,9.439L12.313,9.407L12.32,9.375L12.327,9.341L12.334,9.307L12.341,9.272L12.348,9.237L12.355,9.2L12.361,9.163L12.368,9.125L12.374,9.086L12.381,9.044L12.385,9.023L12.389,9L12.393,8.977L12.398,8.955L12.403,8.932L12.409,8.91L12.414,8.888L12.421,8.867L12.427,8.846L12.434,8.825L12.441,8.804L12.449,8.784L12.457,8.763L12.466,8.743L12.475,8.723L12.484,8.704L12.494,8.684L12.504,8.665L12.515,8.647L12.526,8.628L12.537,8.61L12.549,8.593L12.561,8.576L12.574,8.559L12.587,8.543L12.6,8.527L12.613,8.512L12.627,8.498L12.64,8.484L12.654,8.47L12.668,8.457L12.681,8.445L12.695,8.434L12.708,8.422L12.722,8.412L12.737,8.401L12.761,8.383L12.785,8.367L12.808,8.352L12.83,8.339L12.85,8.327L12.868,8.316L12.9,8.299L12.913,8.291L12.925,8.284L12.935,8.278L12.944,8.273L12.952,8.267L12.958,8.263L12.965,8.258L12.966,8.257L12.968,8.255L12.971,8.253L12.973,8.251L12.976,8.249L12.977,8.247L12.979,8.245L12.981,8.243L12.984,8.241L12.986,8.238L12.988,8.236L12.99,8.233L12.992,8.231L12.995,8.227L12.998,8.224L13,8.22L13.003,8.216L13.006,8.211L13.009,8.207L13.013,8.201L13.016,8.195L13.02,8.189L13.023,8.182L13.027,8.175L13.031,8.167L13.035,8.158L13.039,8.149L13.043,8.14L13.048,8.129L13.052,8.118L13.056,8.106L13.061,8.094L13.065,8.081L13.07,8.067L13.074,8.053L13.079,8.038L13.084,8.022L13.088,8.005L13.093,7.988L13.097,7.97L13.102,7.951L13.106,7.931L13.111,7.91L13.115,7.889L13.12,7.867L13.124,7.844L13.128,7.82L13.132,7.795L13.136,7.77L13.14,7.743L13.144,7.716L13.148,7.688L13.152,7.659L13.155,7.629L13.159,7.598L13.162,7.566L13.165,7.534L13.168,7.5L13.171,7.466L13.174,7.43L13.177,7.394L13.178,7.371L13.178,7.358L13.178,7.334L13.177,7.31L13.176,7.287L13.174,7.265L13.173,7.243L13.17,7.223L13.168,7.203L13.166,7.184L13.163,7.166L13.16,7.148L13.157,7.131L13.154,7.115L13.15,7.099L13.147,7.085L13.143,7.071L13.14,7.057L13.136,7.044L13.132,7.032L13.129,7.021L13.125,7.01L13.121,6.999L13.117,6.989L13.113,6.98L13.109,6.971L13.106,6.963L13.102,6.956L13.098,6.948L13.095,6.941L13.091,6.935L13.088,6.93L13.085,6.924L13.081,6.919L13.078,6.914L13.076,6.91L13.073,6.906L13.07,6.902L13.068,6.899L13.066,6.897L13.064,6.894L13.062,6.892L13.06,6.89L13.059,6.889L12.826,6.752L12.876,6.421L12.884,6.368L12.895,6.297L12.908,6.21L12.922,6.108L12.938,5.994L12.955,5.868L12.973,5.734L12.982,5.664L12.991,5.593L13,5.52L13.009,5.447L13.018,5.372L13.027,5.297L13.036,5.221L13.044,5.145L13.052,5.07L13.06,4.995L13.068,4.92L13.074,4.846L13.081,4.774L13.087,4.703L13.088,4.688L13.089,4.674L13.09,4.658L13.09,4.643L13.091,4.626L13.091,4.61L13.091,4.593L13.091,4.575L13.091,4.558L13.091,4.54L13.09,4.522L13.09,4.503L13.089,4.484L13.088,4.465L13.086,4.445L13.085,4.425L13.083,4.405L13.081,4.385L13.079,4.364L13.077,4.343L13.074,4.323L13.071,4.301L13.068,4.28L13.065,4.258L13.062,4.236L13.058,4.214L13.054,4.191L13.05,4.169L13.046,4.146L13.041,4.123L13.036,4.1L13.031,4.077L13.026,4.053L13.02,4.03L13.015,4.006L13.009,3.983L13.002,3.959L12.996,3.935L12.989,3.911L12.982,3.887L12.974,3.862L12.967,3.838L12.959,3.814L12.951,3.789L12.942,3.765L12.934,3.74L12.925,3.716L12.916,3.691L12.906,3.666L12.896,3.641L12.886,3.617L12.876,3.592L12.865,3.567L12.854,3.542L12.843,3.517L12.832,3.493L12.82,3.468L12.808,3.443L12.796,3.418L12.783,3.394L12.77,3.369L12.757,3.344L12.743,3.32L12.729,3.295L12.715,3.271L12.701,3.246L12.686,3.222L12.671,3.198L12.656,3.173L12.64,3.149L12.624,3.125L12.607,3.101L12.591,3.078L12.574,3.054L12.557,3.03L12.539,3.007L12.521,2.983L12.503,2.96L12.484,2.937L12.465,2.914L12.446,2.891L12.426,2.868L12.406,2.846L12.386,2.823L12.365,2.801L12.344,2.779L12.323,2.757L12.301,2.735L12.279,2.714L12.257,2.692L12.234,2.671L12.211,2.65L12.187,2.629L12.164,2.608L12.139,2.588L12.115,2.567L12.089,2.547L12.064,2.527L12.038,2.508L12.012,2.488L11.985,2.469L11.958,2.45L11.931,2.431L11.903,2.413L11.875,2.395L11.846,2.377L11.817,2.359L11.787,2.341L11.757,2.324L11.727,2.307L11.696,2.29L11.664,2.274L11.633,2.258L11.6,2.242L11.568,2.226L11.534,2.211L11.501,2.196L11.466,2.181L11.432,2.167L11.397,2.153L11.361,2.139L11.325,2.126L11.288,2.113L11.251,2.1L11.213,2.088L11.175,2.075L11.137,2.064L10.991,2.022L10.92,1.952L10.919,1.952L10.915,1.95L10.91,1.948L10.905,1.945L10.898,1.942L10.89,1.939L10.882,1.936L10.873,1.932L10.863,1.929L10.852,1.925L10.841,1.922L10.829,1.918L10.816,1.915L10.802,1.911L10.788,1.907L10.773,1.904L10.758,1.9L10.742,1.897L10.725,1.894L10.708,1.89L10.69,1.887L10.672,1.884L10.654,1.881L10.634,1.878L10.615,1.876L10.595,1.873L10.574,1.87L10.553,1.868L10.532,1.866L10.51,1.864L10.487,1.862L10.465,1.86L10.442,1.858L10.418,1.857L10.395,1.856L10.37,1.854L10.346,1.853L10.321,1.853L10.296,1.852L10.271,1.851L10.245,1.851L10.219,1.851L10.193,1.851Z" style="fill:rgb(14,99,238);"/>
                    </g>
                </g>
                <path d="M8120.16,1968.09L8120.43,1968.1L8120.7,1968.1L8120.97,1968.11L8121.24,1968.11L8121.51,1968.12L8121.78,1968.13L8122.05,1968.15L8122.32,1968.16L8122.59,1968.18L8122.85,1968.19L8123.12,1968.22L8123.39,1968.24L8123.65,1968.26L8123.92,1968.28L8124.19,1968.31L8124.45,1968.34L8124.72,1968.37L8124.98,1968.4L8125.24,1968.43L8125.51,1968.47L8125.77,1968.5L8126.03,1968.54L8126.29,1968.58L8126.55,1968.62L8126.81,1968.66L8127.07,1968.7L8127.33,1968.75L8127.59,1968.8L8127.85,1968.85L8128.11,1968.9L8128.37,1968.95L8128.62,1969L8128.88,1969.06L8129.13,1969.11L8129.39,1969.17L8129.64,1969.23L8129.9,1969.29L8130.15,1969.35L8130.4,1969.42L8130.65,1969.48L8130.9,1969.55L8131.16,1969.62L8131.41,1969.69L8131.65,1969.76L8131.9,1969.84L8132.15,1969.91L8132.4,1969.99L8132.65,1970.06L8132.89,1970.14L8133.14,1970.22L8133.38,1970.31L8133.63,1970.39L8133.87,1970.47L8134.11,1970.56L8134.36,1970.65L8134.6,1970.74L8134.84,1970.83L8135.08,1970.92L8135.32,1971.02L8135.56,1971.11L8135.79,1971.21L8136.03,1971.3L8136.27,1971.4L8136.5,1971.5L8136.74,1971.61L8136.97,1971.71L8137.21,1971.81L8137.44,1971.92L8137.67,1972.03L8137.9,1972.14L8138.13,1972.25L8138.36,1972.36L8138.59,1972.47L8138.82,1972.59L8139.05,1972.7L8139.27,1972.82L8139.5,1972.94L8139.72,1973.06L8139.95,1973.18L8140.17,1973.3L8140.39,1973.42L8140.62,1973.55L8140.84,1973.67L8141.06,1973.8L8141.28,1973.93L8141.49,1974.06L8141.71,1974.19L8141.93,1974.32L8142.14,1974.46L8142.36,1974.59L8142.57,1974.73L8142.79,1974.87L8143,1975.01L8143.21,1975.15L8143.42,1975.29L8143.63,1975.43L8143.84,1975.57L8144.05,1975.72L8144.25,1975.87L8144.46,1976.01L8144.66,1976.16L8144.87,1976.31L8145.07,1976.46L8145.27,1976.61L8145.48,1976.77L8145.68,1976.92L8145.88,1977.08L8146.07,1977.24L8146.27,1977.39L8146.47,1977.55L8146.66,1977.71L8146.86,1977.87L8147.05,1978.04L8147.24,1978.2L8147.44,1978.37L8147.63,1978.53L8147.82,1978.7L8148,1978.87L8148.19,1979.04L8148.38,1979.21L8148.56,1979.38L8148.75,1979.55L8148.93,1979.73L8149.11,1979.9L8149.29,1980.08L8149.47,1980.25L8149.65,1980.43L8149.83,1980.61L8150.01,1980.79L8150.19,1980.97L8150.36,1981.15L8150.53,1981.34L8150.71,1981.52L8150.88,1981.71L8151.05,1981.89L8151.22,1982.08L8151.39,1982.27L8151.55,1982.46L8151.72,1982.65L8151.88,1982.84L8152.05,1983.03L8152.21,1983.23L8152.37,1983.42L8152.53,1983.62L8152.69,1983.81L8152.85,1984.01L8153.01,1984.21L8153.16,1984.41L8153.32,1984.61L8153.47,1984.81L8153.62,1985.01L8153.77,1985.22L8153.92,1985.42L8154.07,1985.63L8154.22,1985.83L8154.37,1986.04L8154.51,1986.25L8154.65,1986.46L8154.8,1986.66L8154.94,1986.88L8155.08,1987.09L8155.22,1987.3L8155.36,1987.51L8155.49,1987.73L8155.63,1987.94L8155.76,1988.16L8155.89,1988.37L8156.02,1988.59L8156.15,1988.81L8156.28,1989.03L8156.41,1989.25L8156.54,1989.47L8156.66,1989.69L8156.78,1989.91L8156.91,1990.14L8157.03,1990.36L8157.15,1990.59L8157.27,1990.81L8157.38,1991.04L8157.5,1991.27L8157.61,1991.49L8157.73,1991.72L8157.84,1991.95L8157.95,1992.18L8158.06,1992.41L8158.16,1992.64L8158.27,1992.88L8158.38,1993.11L8158.48,1993.35L8158.58,1993.58L8158.68,1993.82L8158.78,1994.05L8158.88,1994.29L8158.98,1994.53L8159.07,1994.77L8159.16,1995.01L8159.26,1995.25L8159.35,1995.49L8159.44,1995.73L8159.52,1995.97L8159.61,1996.21L8159.7,1996.46L8159.78,1996.7L8159.86,1996.95L8159.94,1997.19L8160.02,1997.44L8160.1,1997.68L8160.18,1997.93L8160.25,1998.18L8160.32,1998.43L8160.39,1998.68L8160.46,1998.93L8160.53,1999.18L8160.6,1999.43L8160.67,1999.68L8160.73,1999.93L8160.79,2000.19L8160.85,2000.44L8160.91,2000.7L8160.97,2000.95L8161.03,2001.21L8161.08,2001.46L8161.14,2001.72L8161.19,2001.98L8161.24,2002.23L8161.29,2002.49L8161.34,2002.75L8161.38,2003.01L8161.42,2003.27L8161.47,2003.53L8161.51,2003.79L8161.55,2004.05L8161.58,2004.32L8161.62,2004.58L8161.65,2004.84L8161.69,2005.11L8161.72,2005.37L8161.75,2005.63L8161.78,2005.9L8161.8,2006.16L8161.83,2006.43L8161.85,2006.7L8161.87,2006.96L8161.89,2007.23L8161.91,2007.5L8161.92,2007.77L8161.94,2008.04L8161.95,2008.31L8161.96,2008.57L8161.97,2008.84L8161.98,2009.12L8161.99,2009.39L8161.99,2009.66L8161.99,2009.93L8161.99,2010.2L8161.99,2010.47L8161.99,2010.75L8161.99,2011.02L8161.98,2011.29L8161.97,2011.56L8161.96,2011.83L8161.95,2012.1L8161.94,2012.37L8161.92,2012.63L8161.91,2012.9L8161.89,2013.17L8161.87,2013.44L8161.85,2013.71L8161.83,2013.97L8161.8,2014.24L8161.78,2014.5L8161.75,2014.77L8161.72,2015.03L8161.69,2015.3L8161.65,2015.56L8161.62,2015.82L8161.58,2016.09L8161.55,2016.35L8161.51,2016.61L8161.47,2016.87L8161.42,2017.13L8161.38,2017.39L8161.34,2017.65L8161.29,2017.91L8161.24,2018.17L8161.19,2018.43L8161.14,2018.68L8161.08,2018.94L8161.03,2019.2L8160.97,2019.45L8160.91,2019.71L8160.85,2019.96L8160.79,2020.21L8160.73,2020.47L8160.67,2020.72L8160.6,2020.97L8160.53,2021.22L8160.46,2021.47L8160.39,2021.72L8160.32,2021.97L8160.25,2022.22L8160.18,2022.47L8160.1,2022.72L8160.02,2022.96L8159.94,2023.21L8159.86,2023.46L8159.78,2023.7L8159.7,2023.94L8159.61,2024.19L8159.52,2024.43L8159.44,2024.67L8159.35,2024.91L8159.26,2025.16L8159.16,2025.4L8159.07,2025.63L8158.98,2025.87L8158.88,2026.11L8158.78,2026.35L8158.68,2026.59L8158.58,2026.82L8158.48,2027.06L8158.38,2027.29L8158.27,2027.52L8158.16,2027.76L8158.06,2027.99L8157.95,2028.22L8157.84,2028.45L8157.73,2028.68L8157.61,2028.91L8157.5,2029.14L8157.38,2029.37L8157.27,2029.59L8157.15,2029.82L8157.03,2030.04L8156.91,2030.27L8156.78,2030.49L8156.66,2030.71L8156.54,2030.93L8156.41,2031.15L8156.28,2031.37L8156.15,2031.59L8156.02,2031.81L8155.89,2032.03L8155.76,2032.25L8155.63,2032.46L8155.49,2032.68L8155.36,2032.89L8155.22,2033.1L8155.08,2033.32L8154.94,2033.53L8154.8,2033.74L8154.65,2033.95L8154.51,2034.16L8154.37,2034.36L8154.22,2034.57L8154.07,2034.78L8153.92,2034.98L8153.77,2035.19L8153.62,2035.39L8153.47,2035.59L8153.32,2035.79L8153.16,2035.99L8153.01,2036.19L8152.85,2036.39L8152.69,2036.59L8152.53,2036.79L8152.37,2036.98L8152.21,2037.17L8152.05,2037.37L8151.88,2037.56L8151.72,2037.75L8151.55,2037.94L8151.39,2038.13L8151.22,2038.32L8151.05,2038.51L8150.88,2038.69L8150.71,2038.88L8150.53,2039.07L8150.36,2039.25L8150.19,2039.43L8150.01,2039.61L8149.83,2039.79L8149.65,2039.97L8149.47,2040.15L8149.29,2040.33L8149.11,2040.5L8148.93,2040.68L8148.75,2040.85L8148.56,2041.02L8148.38,2041.19L8148.19,2041.37L8148,2041.54L8147.82,2041.7L8147.63,2041.87L8147.44,2042.04L8147.24,2042.2L8147.05,2042.37L8146.86,2042.53L8146.66,2042.69L8146.47,2042.85L8146.27,2043.01L8146.07,2043.17L8145.88,2043.32L8145.68,2043.48L8145.48,2043.63L8145.27,2043.79L8145.07,2043.94L8144.87,2044.09L8144.66,2044.24L8144.46,2044.39L8144.25,2044.54L8144.05,2044.68L8143.84,2044.83L8143.63,2044.97L8143.42,2045.12L8143.21,2045.26L8143,2045.4L8142.79,2045.54L8142.57,2045.67L8142.36,2045.81L8142.14,2045.94L8141.93,2046.08L8141.71,2046.21L8141.49,2046.34L8141.28,2046.47L8141.06,2046.6L8140.84,2046.73L8140.62,2046.85L8140.39,2046.98L8140.17,2047.1L8139.95,2047.23L8139.72,2047.35L8139.5,2047.47L8139.27,2047.58L8139.05,2047.7L8138.82,2047.82L8138.59,2047.93L8138.36,2048.04L8138.13,2048.16L8137.9,2048.27L8137.67,2048.37L8137.44,2048.48L8137.21,2048.59L8136.97,2048.69L8136.74,2048.8L8136.5,2048.9L8136.27,2049L8136.03,2049.1L8135.79,2049.2L8135.56,2049.29L8135.32,2049.39L8135.08,2049.48L8134.84,2049.57L8134.6,2049.66L8134.36,2049.75L8134.11,2049.84L8133.87,2049.93L8133.63,2050.01L8133.38,2050.1L8133.14,2050.18L8132.89,2050.26L8132.65,2050.34L8132.4,2050.42L8132.15,2050.49L8131.9,2050.57L8131.65,2050.64L8131.41,2050.71L8131.16,2050.78L8130.9,2050.85L8130.65,2050.92L8130.4,2050.98L8130.15,2051.05L8129.9,2051.11L8129.64,2051.17L8129.39,2051.23L8129.13,2051.29L8128.88,2051.35L8128.62,2051.4L8128.37,2051.45L8128.11,2051.51L8127.85,2051.56L8127.59,2051.61L8127.33,2051.65L8127.07,2051.7L8126.81,2051.74L8126.55,2051.78L8126.29,2051.82L8126.03,2051.86L8125.77,2051.9L8125.51,2051.94L8125.24,2051.97L8124.98,2052.01L8124.72,2052.04L8124.45,2052.07L8124.19,2052.09L8123.92,2052.12L8123.65,2052.14L8123.39,2052.17L8123.12,2052.19L8122.85,2052.21L8122.59,2052.22L8122.32,2052.24L8122.05,2052.26L8121.78,2052.27L8121.51,2052.28L8121.24,2052.29L8120.97,2052.3L8120.7,2052.3L8120.43,2052.31L8120.16,2052.31L8119.88,2052.31L8119.61,2052.31L8119.34,2052.31L8119.07,2052.3L8118.8,2052.3L8118.53,2052.29L8118.26,2052.28L8117.99,2052.27L8117.72,2052.26L8117.45,2052.24L8117.18,2052.22L8116.91,2052.21L8116.65,2052.19L8116.38,2052.17L8116.11,2052.14L8115.85,2052.12L8115.58,2052.09L8115.32,2052.07L8115.05,2052.04L8114.79,2052.01L8114.52,2051.97L8114.26,2051.94L8114,2051.9L8113.74,2051.86L8113.47,2051.82L8113.21,2051.78L8112.95,2051.74L8112.69,2051.7L8112.43,2051.65L8112.18,2051.61L8111.92,2051.56L8111.66,2051.51L8111.4,2051.45L8111.15,2051.4L8110.89,2051.35L8110.63,2051.29L8110.38,2051.23L8110.12,2051.17L8109.87,2051.11L8109.62,2051.05L8109.36,2050.98L8109.11,2050.92L8108.86,2050.85L8108.61,2050.78L8108.36,2050.71L8108.11,2050.64L8107.86,2050.57L8107.61,2050.49L8107.37,2050.42L8107.12,2050.34L8106.87,2050.26L8106.63,2050.18L8106.38,2050.1L8106.14,2050.01L8105.9,2049.93L8105.65,2049.84L8105.41,2049.75L8105.17,2049.66L8104.93,2049.57L8104.69,2049.48L8104.45,2049.39L8104.21,2049.29L8103.97,2049.2L8103.74,2049.1L8103.5,2049L8103.26,2048.9L8103.03,2048.8L8102.79,2048.69L8102.56,2048.59L8102.33,2048.48L8102.1,2048.37L8101.86,2048.27L8101.63,2048.16L8101.4,2048.04L8101.18,2047.93L8100.95,2047.82L8100.72,2047.7L8100.49,2047.58L8100.27,2047.47L8100.04,2047.35L8099.82,2047.23L8099.6,2047.1L8099.37,2046.98L8099.15,2046.85L8098.93,2046.73L8098.71,2046.6L8098.49,2046.47L8098.27,2046.34L8098.06,2046.21L8097.84,2046.08L8097.62,2045.94L8097.41,2045.81L8097.19,2045.67L8096.98,2045.54L8096.77,2045.4L8096.56,2045.26L8096.35,2045.12L8096.14,2044.97L8095.93,2044.83L8095.72,2044.68L8095.51,2044.54L8095.31,2044.39L8095.1,2044.24L8094.9,2044.09L8094.7,2043.94L8094.49,2043.79L8094.29,2043.63L8094.09,2043.48L8093.89,2043.32L8093.69,2043.17L8093.5,2043.01L8093.3,2042.85L8093.11,2042.69L8092.91,2042.53L8092.72,2042.37L8092.52,2042.2L8092.33,2042.04L8092.14,2041.87L8091.95,2041.7L8091.76,2041.54L8091.58,2041.37L8091.39,2041.19L8091.2,2041.02L8091.02,2040.85L8090.84,2040.68L8090.65,2040.5L8090.47,2040.33L8090.29,2040.15L8090.11,2039.97L8089.94,2039.79L8089.76,2039.61L8089.58,2039.43L8089.41,2039.25L8089.23,2039.07L8089.06,2038.88L8088.89,2038.69L8088.72,2038.51L8088.55,2038.32L8088.38,2038.13L8088.21,2037.94L8088.05,2037.75L8087.88,2037.56L8087.72,2037.37L8087.56,2037.17L8087.4,2036.98L8087.24,2036.79L8087.07,2036.59L8086.92,2036.39L8086.76,2036.19L8086.61,2035.99L8086.45,2035.79L8086.3,2035.59L8086.14,2035.39L8085.99,2035.19L8085.84,2034.98L8085.7,2034.78L8085.55,2034.57L8085.4,2034.36L8085.26,2034.16L8085.11,2033.95L8084.97,2033.74L8084.83,2033.53L8084.69,2033.32L8084.55,2033.1L8084.41,2032.89L8084.28,2032.68L8084.14,2032.46L8084.01,2032.25L8083.87,2032.03L8083.74,2031.81L8083.61,2031.59L8083.48,2031.37L8083.36,2031.15L8083.23,2030.93L8083.11,2030.71L8082.98,2030.49L8082.86,2030.27L8082.74,2030.04L8082.62,2029.82L8082.5,2029.59L8082.38,2029.37L8082.27,2029.14L8082.15,2028.91L8082.04,2028.68L8081.93,2028.45L8081.82,2028.22L8081.71,2027.99L8081.6,2027.76L8081.5,2027.52L8081.39,2027.29L8081.29,2027.06L8081.19,2026.82L8081.09,2026.59L8080.99,2026.35L8080.89,2026.11L8080.79,2025.87L8080.7,2025.63L8080.6,2025.4L8080.51,2025.16L8080.42,2024.91L8080.33,2024.67L8080.24,2024.43L8080.16,2024.19L8080.07,2023.94L8079.99,2023.7L8079.91,2023.46L8079.83,2023.21L8079.75,2022.96L8079.67,2022.72L8079.59,2022.47L8079.52,2022.22L8079.45,2021.97L8079.37,2021.72L8079.3,2021.47L8079.23,2021.22L8079.17,2020.97L8079.1,2020.72L8079.04,2020.47L8078.97,2020.21L8078.91,2019.96L8078.85,2019.71L8078.8,2019.45L8078.74,2019.2L8078.68,2018.94L8078.63,2018.68L8078.58,2018.43L8078.53,2018.17L8078.48,2017.91L8078.43,2017.65L8078.39,2017.39L8078.34,2017.13L8078.3,2016.87L8078.26,2016.61L8078.22,2016.35L8078.18,2016.09L8078.15,2015.82L8078.11,2015.56L8078.08,2015.3L8078.05,2015.03L8078.02,2014.77L8077.99,2014.5L8077.97,2014.24L8077.94,2013.97L8077.92,2013.71L8077.9,2013.44L8077.88,2013.17L8077.86,2012.9L8077.84,2012.63L8077.83,2012.37L8077.82,2012.1L8077.81,2011.83L8077.8,2011.56L8077.79,2011.29L8077.78,2011.02L8077.78,2010.75L8077.78,2010.47L8077.77,2010.2L8077.78,2009.93L8077.78,2009.66L8077.78,2009.39L8077.79,2009.12L8077.8,2008.84L8077.81,2008.57L8077.82,2008.31L8077.83,2008.04L8077.84,2007.77L8077.86,2007.5L8077.88,2007.23L8077.9,2006.96L8077.92,2006.7L8077.94,2006.43L8077.97,2006.16L8077.99,2005.9L8078.02,2005.63L8078.05,2005.37L8078.08,2005.11L8078.11,2004.84L8078.15,2004.58L8078.18,2004.32L8078.22,2004.05L8078.26,2003.79L8078.3,2003.53L8078.34,2003.27L8078.39,2003.01L8078.43,2002.75L8078.48,2002.49L8078.53,2002.23L8078.58,2001.98L8078.63,2001.72L8078.68,2001.46L8078.74,2001.21L8078.8,2000.95L8078.85,2000.7L8078.91,2000.44L8078.97,2000.19L8079.04,1999.93L8079.1,1999.68L8079.17,1999.43L8079.23,1999.18L8079.3,1998.93L8079.37,1998.68L8079.45,1998.43L8079.52,1998.18L8079.59,1997.93L8079.67,1997.68L8079.75,1997.44L8079.83,1997.19L8079.91,1996.95L8079.99,1996.7L8080.07,1996.46L8080.16,1996.21L8080.24,1995.97L8080.33,1995.73L8080.42,1995.49L8080.51,1995.25L8080.6,1995.01L8080.7,1994.77L8080.79,1994.53L8080.89,1994.29L8080.99,1994.05L8081.09,1993.82L8081.19,1993.58L8081.29,1993.35L8081.39,1993.11L8081.5,1992.88L8081.6,1992.64L8081.71,1992.41L8081.82,1992.18L8081.93,1991.95L8082.04,1991.72L8082.15,1991.49L8082.27,1991.27L8082.38,1991.04L8082.5,1990.81L8082.62,1990.59L8082.74,1990.36L8082.86,1990.14L8082.98,1989.91L8083.11,1989.69L8083.23,1989.47L8083.36,1989.25L8083.48,1989.03L8083.61,1988.81L8083.74,1988.59L8083.87,1988.37L8084.01,1988.16L8084.14,1987.94L8084.28,1987.73L8084.41,1987.51L8084.55,1987.3L8084.69,1987.09L8084.83,1986.88L8084.97,1986.66L8085.11,1986.46L8085.26,1986.25L8085.4,1986.04L8085.55,1985.83L8085.7,1985.63L8085.84,1985.42L8085.99,1985.22L8086.14,1985.01L8086.3,1984.81L8086.45,1984.61L8086.61,1984.41L8086.76,1984.21L8086.92,1984.01L8087.07,1983.81L8087.24,1983.62L8087.4,1983.42L8087.56,1983.23L8087.72,1983.03L8087.88,1982.84L8088.05,1982.65L8088.21,1982.46L8088.38,1982.27L8088.55,1982.08L8088.72,1981.89L8088.89,1981.71L8089.06,1981.52L8089.23,1981.34L8089.41,1981.15L8089.58,1980.97L8089.76,1980.79L8089.94,1980.61L8090.11,1980.43L8090.29,1980.25L8090.47,1980.08L8090.65,1979.9L8090.84,1979.73L8091.02,1979.55L8091.2,1979.38L8091.39,1979.21L8091.58,1979.04L8091.76,1978.87L8091.95,1978.7L8092.14,1978.53L8092.33,1978.37L8092.52,1978.2L8092.72,1978.04L8092.91,1977.87L8093.11,1977.71L8093.3,1977.55L8093.5,1977.39L8093.69,1977.24L8093.89,1977.08L8094.09,1976.92L8094.29,1976.77L8094.49,1976.61L8094.7,1976.46L8094.9,1976.31L8095.1,1976.16L8095.31,1976.01L8095.51,1975.87L8095.72,1975.72L8095.93,1975.57L8096.14,1975.43L8096.35,1975.29L8096.56,1975.15L8096.77,1975.01L8096.98,1974.87L8097.19,1974.73L8097.41,1974.59L8097.62,1974.46L8097.84,1974.32L8098.06,1974.19L8098.27,1974.06L8098.49,1973.93L8098.71,1973.8L8098.93,1973.67L8099.15,1973.55L8099.37,1973.42L8099.6,1973.3L8099.82,1973.18L8100.04,1973.06L8100.27,1972.94L8100.49,1972.82L8100.72,1972.7L8100.95,1972.59L8101.18,1972.47L8101.4,1972.36L8101.63,1972.25L8101.86,1972.14L8102.1,1972.03L8102.33,1971.92L8102.56,1971.81L8102.79,1971.71L8103.03,1971.61L8103.26,1971.5L8103.5,1971.4L8103.74,1971.3L8103.97,1971.21L8104.21,1971.11L8104.45,1971.02L8104.69,1970.92L8104.93,1970.83L8105.17,1970.74L8105.41,1970.65L8105.65,1970.56L8105.9,1970.47L8106.14,1970.39L8106.38,1970.31L8106.63,1970.22L8106.87,1970.14L8107.12,1970.06L8107.37,1969.99L8107.61,1969.91L8107.86,1969.84L8108.11,1969.76L8108.36,1969.69L8108.61,1969.62L8108.86,1969.55L8109.11,1969.48L8109.36,1969.42L8109.62,1969.35L8109.87,1969.29L8110.12,1969.23L8110.38,1969.17L8110.63,1969.11L8110.89,1969.06L8111.15,1969L8111.4,1968.95L8111.66,1968.9L8111.92,1968.85L8112.18,1968.8L8112.43,1968.75L8112.69,1968.7L8112.95,1968.66L8113.21,1968.62L8113.47,1968.58L8113.74,1968.54L8114,1968.5L8114.26,1968.47L8114.52,1968.43L8114.79,1968.4L8115.05,1968.37L8115.32,1968.34L8115.58,1968.31L8115.85,1968.28L8116.11,1968.26L8116.38,1968.24L8116.65,1968.22L8116.91,1968.19L8117.18,1968.18L8117.45,1968.16L8117.72,1968.15L8117.99,1968.13L8118.26,1968.12L8118.53,1968.11L8118.8,1968.11L8119.07,1968.1L8119.34,1968.1L8119.61,1968.09L8119.88,1968.09L8120.16,1968.09ZM8119.62,1969.95L8119.36,1969.96L8119.1,1969.96L8118.85,1969.97L8118.59,1969.97L8118.33,1969.98L8118.07,1969.99L8117.81,1970.01L8117.56,1970.02L8117.3,1970.03L8117.04,1970.05L8116.79,1970.07L8116.53,1970.09L8116.28,1970.11L8116.02,1970.13L8115.77,1970.16L8115.52,1970.19L8115.26,1970.22L8115.01,1970.25L8114.76,1970.28L8114.51,1970.31L8114.26,1970.34L8114.01,1970.38L8113.76,1970.42L8113.51,1970.46L8113.26,1970.5L8113.01,1970.54L8112.76,1970.58L8112.51,1970.63L8112.27,1970.67L8112.02,1970.72L8111.78,1970.77L8111.53,1970.82L8111.28,1970.87L8111.04,1970.93L8110.8,1970.98L8110.55,1971.04L8110.31,1971.1L8110.07,1971.16L8109.83,1971.22L8109.59,1971.28L8109.35,1971.35L8109.11,1971.41L8108.87,1971.48L8108.63,1971.55L8108.39,1971.62L8108.16,1971.69L8107.92,1971.76L8107.68,1971.84L8107.45,1971.91L8107.22,1971.99L8106.98,1972.07L8106.75,1972.15L8106.52,1972.23L8106.28,1972.31L8106.05,1972.4L8105.82,1972.48L8105.59,1972.57L8105.36,1972.66L8105.13,1972.75L8104.9,1972.84L8104.68,1972.93L8104.45,1973.02L8104.22,1973.12L8104,1973.21L8103.78,1973.31L8103.55,1973.41L8103.33,1973.51L8103.11,1973.61L8102.88,1973.71L8102.66,1973.82L8102.44,1973.92L8102.22,1974.03L8102,1974.14L8101.79,1974.25L8101.57,1974.36L8101.35,1974.47L8101.14,1974.58L8100.92,1974.7L8100.71,1974.81L8100.49,1974.93L8100.28,1975.05L8100.07,1975.17L8099.86,1975.29L8099.65,1975.41L8099.44,1975.53L8099.23,1975.66L8099.02,1975.78L8098.82,1975.91L8098.61,1976.04L8098.4,1976.16L8098.2,1976.3L8097.99,1976.43L8097.79,1976.56L8097.59,1976.69L8097.39,1976.83L8097.19,1976.97L8096.99,1977.1L8096.79,1977.24L8096.59,1977.38L8096.4,1977.52L8096.2,1977.66L8096,1977.81L8095.81,1977.95L8095.62,1978.1L8095.42,1978.24L8095.23,1978.39L8095.04,1978.54L8094.85,1978.69L8094.66,1978.84L8094.48,1978.99L8094.29,1979.15L8094.1,1979.3L8093.92,1979.46L8093.73,1979.61L8093.55,1979.77L8093.37,1979.93L8093.19,1980.09L8093.01,1980.25L8092.83,1980.41L8092.65,1980.58L8092.47,1980.74L8092.3,1980.91L8092.12,1981.07L8091.95,1981.24L8091.77,1981.41L8091.6,1981.58L8091.43,1981.75L8091.26,1981.92L8091.09,1982.09L8090.92,1982.26L8090.75,1982.44L8090.59,1982.61L8090.42,1982.79L8090.26,1982.97L8090.1,1983.14L8089.93,1983.32L8089.77,1983.51L8089.61,1983.69L8089.45,1983.87L8089.3,1984.05L8089.14,1984.24L8088.98,1984.42L8088.83,1984.61L8088.68,1984.79L8088.52,1984.98L8088.37,1985.17L8088.22,1985.36L8088.07,1985.55L8087.93,1985.74L8087.78,1985.93L8087.63,1986.13L8087.49,1986.32L8087.35,1986.52L8087.2,1986.71L8087.06,1986.91L8086.92,1987.11L8086.78,1987.31L8086.65,1987.51L8086.51,1987.71L8086.38,1987.91L8086.24,1988.11L8086.11,1988.31L8085.98,1988.52L8085.85,1988.72L8085.72,1988.93L8085.59,1989.13L8085.46,1989.34L8085.34,1989.55L8085.21,1989.76L8085.09,1989.97L8084.97,1990.17L8084.85,1990.39L8084.73,1990.6L8084.61,1990.81L8084.49,1991.03L8084.38,1991.24L8084.26,1991.45L8084.15,1991.67L8084.04,1991.89L8083.93,1992.1L8083.82,1992.32L8083.71,1992.54L8083.61,1992.76L8083.5,1992.98L8083.4,1993.2L8083.29,1993.42L8083.19,1993.64L8083.09,1993.87L8082.99,1994.09L8082.9,1994.32L8082.8,1994.54L8082.7,1994.77L8082.61,1995L8082.52,1995.22L8082.43,1995.45L8082.34,1995.68L8082.25,1995.91L8082.16,1996.14L8082.08,1996.37L8081.99,1996.6L8081.91,1996.83L8081.83,1997.07L8081.75,1997.3L8081.67,1997.53L8081.6,1997.77L8081.52,1998L8081.45,1998.24L8081.37,1998.47L8081.3,1998.71L8081.23,1998.95L8081.16,1999.19L8081.1,1999.43L8081.03,1999.67L8080.97,1999.91L8080.9,2000.15L8080.84,2000.39L8080.78,2000.63L8080.72,2000.87L8080.67,2001.12L8080.61,2001.36L8080.56,2001.6L8080.5,2001.85L8080.45,2002.09L8080.4,2002.34L8080.36,2002.58L8080.31,2002.83L8080.26,2003.08L8080.22,2003.33L8080.18,2003.58L8080.14,2003.82L8080.1,2004.07L8080.06,2004.32L8080.03,2004.57L8079.99,2004.82L8079.96,2005.08L8079.93,2005.33L8079.9,2005.58L8079.87,2005.83L8079.84,2006.09L8079.82,2006.34L8079.79,2006.6L8079.77,2006.85L8079.75,2007.11L8079.73,2007.36L8079.72,2007.62L8079.7,2007.87L8079.69,2008.13L8079.68,2008.39L8079.66,2008.64L8079.65,2008.9L8079.65,2009.16L8079.64,2009.42L8079.64,2009.68L8079.64,2009.94L8079.64,2010.2L8079.64,2010.46L8079.64,2010.72L8079.64,2010.98L8079.65,2011.24L8079.65,2011.5L8079.66,2011.76L8079.68,2012.02L8079.69,2012.27L8079.7,2012.53L8079.72,2012.79L8079.73,2013.04L8079.75,2013.3L8079.77,2013.55L8079.79,2013.81L8079.82,2014.06L8079.84,2014.32L8079.87,2014.57L8079.9,2014.82L8079.93,2015.07L8079.96,2015.33L8079.99,2015.58L8080.03,2015.83L8080.06,2016.08L8080.1,2016.33L8080.14,2016.58L8080.18,2016.83L8080.22,2017.08L8080.26,2017.32L8080.31,2017.57L8080.36,2017.82L8080.4,2018.06L8080.45,2018.31L8080.5,2018.56L8080.56,2018.8L8080.61,2019.04L8080.67,2019.29L8080.72,2019.53L8080.78,2019.77L8080.84,2020.01L8080.9,2020.26L8080.97,2020.5L8081.03,2020.74L8081.1,2020.98L8081.16,2021.22L8081.23,2021.45L8081.3,2021.69L8081.37,2021.93L8081.45,2022.16L8081.52,2022.4L8081.6,2022.63L8081.67,2022.87L8081.75,2023.1L8081.83,2023.34L8081.91,2023.57L8081.99,2023.8L8082.08,2024.03L8082.16,2024.26L8082.25,2024.49L8082.34,2024.72L8082.43,2024.95L8082.52,2025.18L8082.61,2025.41L8082.7,2025.63L8082.8,2025.86L8082.9,2026.09L8082.99,2026.31L8083.09,2026.53L8083.19,2026.76L8083.29,2026.98L8083.4,2027.2L8083.5,2027.42L8083.61,2027.64L8083.71,2027.86L8083.82,2028.08L8083.93,2028.3L8084.04,2028.52L8084.15,2028.73L8084.27,2028.95L8084.38,2029.16L8084.49,2029.38L8084.61,2029.59L8084.73,2029.8L8084.85,2030.02L8084.97,2030.23L8085.09,2030.44L8085.21,2030.65L8085.34,2030.86L8085.46,2031.06L8085.59,2031.27L8085.72,2031.48L8085.85,2031.68L8085.98,2031.89L8086.11,2032.09L8086.24,2032.29L8086.38,2032.5L8086.51,2032.7L8086.65,2032.9L8086.78,2033.1L8086.92,2033.3L8087.06,2033.49L8087.2,2033.69L8087.35,2033.88L8087.49,2034.08L8087.63,2034.28L8087.78,2034.47L8087.93,2034.66L8088.07,2034.85L8088.22,2035.04L8088.37,2035.23L8088.52,2035.42L8088.68,2035.61L8088.83,2035.8L8088.98,2035.98L8089.14,2036.17L8089.3,2036.35L8089.45,2036.53L8089.61,2036.72L8089.77,2036.9L8089.93,2037.08L8090.1,2037.26L8090.26,2037.43L8090.42,2037.61L8090.59,2037.79L8090.75,2037.96L8090.92,2038.14L8091.09,2038.31L8091.26,2038.48L8091.43,2038.65L8091.6,2038.83L8091.77,2039L8091.95,2039.16L8092.12,2039.33L8092.3,2039.5L8092.47,2039.66L8092.65,2039.83L8092.83,2039.99L8093.01,2040.15L8093.19,2040.31L8093.37,2040.47L8093.55,2040.63L8093.73,2040.79L8093.92,2040.94L8094.1,2041.1L8094.29,2041.26L8094.48,2041.41L8094.66,2041.56L8094.85,2041.71L8095.04,2041.86L8095.23,2042.01L8095.42,2042.16L8095.62,2042.31L8095.81,2042.45L8096,2042.6L8096.2,2042.74L8096.4,2042.88L8096.59,2043.02L8096.79,2043.16L8096.99,2043.3L8097.19,2043.44L8097.39,2043.57L8097.59,2043.71L8097.79,2043.84L8097.99,2043.98L8098.2,2044.11L8098.4,2044.24L8098.61,2044.37L8098.82,2044.49L8099.02,2044.62L8099.23,2044.75L8099.44,2044.87L8099.65,2044.99L8099.86,2045.12L8100.07,2045.24L8100.28,2045.36L8100.49,2045.47L8100.71,2045.59L8100.92,2045.71L8101.14,2045.82L8101.35,2045.93L8101.57,2046.05L8101.79,2046.15L8102,2046.27L8102.22,2046.37L8102.44,2046.48L8102.66,2046.59L8102.88,2046.69L8103.11,2046.79L8103.33,2046.89L8103.55,2046.99L8103.78,2047.09L8104,2047.19L8104.23,2047.29L8104.45,2047.38L8104.68,2047.47L8104.9,2047.57L8105.13,2047.66L8105.36,2047.75L8105.59,2047.83L8105.82,2047.92L8106.05,2048.01L8106.28,2048.09L8106.52,2048.17L8106.75,2048.25L8106.98,2048.33L8107.22,2048.41L8107.45,2048.49L8107.68,2048.57L8107.92,2048.64L8108.16,2048.71L8108.39,2048.78L8108.63,2048.85L8108.87,2048.92L8109.11,2048.99L8109.35,2049.05L8109.59,2049.12L8109.83,2049.18L8110.07,2049.24L8110.31,2049.3L8110.55,2049.36L8110.8,2049.42L8111.04,2049.47L8111.28,2049.53L8111.53,2049.58L8111.78,2049.63L8112.02,2049.68L8112.27,2049.73L8112.51,2049.78L8112.76,2049.82L8113.01,2049.86L8113.26,2049.91L8113.51,2049.95L8113.76,2049.99L8114.01,2050.02L8114.26,2050.06L8114.51,2050.09L8114.76,2050.13L8115.01,2050.16L8115.26,2050.19L8115.52,2050.22L8115.77,2050.24L8116.02,2050.27L8116.28,2050.29L8116.53,2050.31L8116.79,2050.33L8117.04,2050.35L8117.3,2050.37L8117.56,2050.38L8117.81,2050.4L8118.07,2050.41L8118.33,2050.42L8118.59,2050.43L8118.84,2050.44L8119.1,2050.44L8119.36,2050.45L8119.62,2050.45L8119.88,2050.45L8120.14,2050.45L8120.4,2050.45L8120.66,2050.44L8120.92,2050.44L8121.18,2050.43L8121.44,2050.42L8121.7,2050.41L8121.95,2050.4L8122.21,2050.38L8122.47,2050.37L8122.73,2050.35L8122.98,2050.33L8123.24,2050.31L8123.49,2050.29L8123.74,2050.27L8124,2050.24L8124.25,2050.22L8124.5,2050.19L8124.76,2050.16L8125.01,2050.13L8125.26,2050.09L8125.51,2050.06L8125.76,2050.02L8126.01,2049.99L8126.26,2049.95L8126.51,2049.91L8126.76,2049.86L8127.01,2049.82L8127.25,2049.78L8127.5,2049.73L8127.75,2049.68L8127.99,2049.63L8128.24,2049.58L8128.48,2049.53L8128.73,2049.47L8128.97,2049.42L8129.21,2049.36L8129.45,2049.3L8129.7,2049.24L8129.94,2049.18L8130.18,2049.12L8130.42,2049.05L8130.66,2048.99L8130.9,2048.92L8131.14,2048.85L8131.37,2048.78L8131.61,2048.71L8131.85,2048.64L8132.08,2048.57L8132.32,2048.49L8132.55,2048.41L8132.79,2048.33L8133.02,2048.25L8133.25,2048.17L8133.48,2048.09L8133.72,2048.01L8133.95,2047.92L8134.18,2047.83L8134.41,2047.75L8134.64,2047.66L8134.86,2047.57L8135.09,2047.47L8135.32,2047.38L8135.54,2047.29L8135.77,2047.19L8135.99,2047.09L8136.22,2046.99L8136.44,2046.89L8136.66,2046.79L8136.88,2046.69L8137.11,2046.59L8137.32,2046.48L8137.54,2046.37L8137.76,2046.27L8137.98,2046.16L8138.2,2046.05L8138.41,2045.93L8138.63,2045.82L8138.85,2045.71L8139.06,2045.59L8139.27,2045.47L8139.49,2045.36L8139.7,2045.24L8139.91,2045.12L8140.12,2044.99L8140.33,2044.87L8140.54,2044.75L8140.74,2044.62L8140.95,2044.49L8141.16,2044.37L8141.36,2044.24L8141.57,2044.11L8141.77,2043.98L8141.98,2043.84L8142.18,2043.71L8142.38,2043.57L8142.58,2043.44L8142.78,2043.3L8142.98,2043.16L8143.18,2043.02L8143.37,2042.88L8143.57,2042.74L8143.76,2042.6L8143.96,2042.45L8144.15,2042.31L8144.34,2042.16L8144.53,2042.01L8144.73,2041.86L8144.91,2041.71L8145.1,2041.56L8145.29,2041.41L8145.48,2041.26L8145.66,2041.1L8145.85,2040.94L8146.03,2040.79L8146.22,2040.63L8146.4,2040.47L8146.58,2040.31L8146.76,2040.15L8146.94,2039.99L8147.12,2039.83L8147.3,2039.66L8147.47,2039.5L8147.65,2039.33L8147.82,2039.16L8147.99,2039L8148.17,2038.83L8148.34,2038.65L8148.51,2038.48L8148.68,2038.31L8148.85,2038.14L8149.01,2037.96L8149.18,2037.79L8149.34,2037.61L8149.51,2037.43L8149.67,2037.26L8149.83,2037.08L8149.99,2036.9L8150.15,2036.72L8150.31,2036.53L8150.47,2036.35L8150.63,2036.17L8150.78,2035.98L8150.94,2035.8L8151.09,2035.61L8151.24,2035.42L8151.39,2035.23L8151.54,2035.04L8151.69,2034.85L8151.84,2034.66L8151.99,2034.47L8152.13,2034.28L8152.28,2034.08L8152.42,2033.88L8152.56,2033.69L8152.7,2033.49L8152.84,2033.3L8152.98,2033.1L8153.12,2032.9L8153.26,2032.7L8153.39,2032.5L8153.53,2032.29L8153.66,2032.09L8153.79,2031.89L8153.92,2031.68L8154.05,2031.48L8154.18,2031.27L8154.3,2031.06L8154.43,2030.86L8154.55,2030.65L8154.68,2030.44L8154.8,2030.23L8154.92,2030.02L8155.04,2029.8L8155.16,2029.59L8155.27,2029.38L8155.39,2029.16L8155.5,2028.95L8155.62,2028.73L8155.73,2028.52L8155.84,2028.3L8155.95,2028.08L8156.06,2027.86L8156.16,2027.64L8156.27,2027.42L8156.37,2027.2L8156.47,2026.98L8156.58,2026.76L8156.68,2026.53L8156.77,2026.31L8156.87,2026.09L8156.97,2025.86L8157.06,2025.63L8157.16,2025.41L8157.25,2025.18L8157.34,2024.95L8157.43,2024.72L8157.52,2024.49L8157.6,2024.26L8157.69,2024.03L8157.77,2023.8L8157.86,2023.57L8157.94,2023.34L8158.02,2023.1L8158.1,2022.87L8158.17,2022.63L8158.25,2022.4L8158.32,2022.16L8158.4,2021.93L8158.47,2021.69L8158.54,2021.45L8158.61,2021.22L8158.67,2020.98L8158.74,2020.74L8158.8,2020.5L8158.86,2020.26L8158.93,2020.01L8158.99,2019.77L8159.04,2019.53L8159.1,2019.29L8159.16,2019.04L8159.21,2018.8L8159.26,2018.56L8159.31,2018.31L8159.36,2018.06L8159.41,2017.82L8159.46,2017.57L8159.5,2017.32L8159.55,2017.08L8159.59,2016.83L8159.63,2016.58L8159.67,2016.33L8159.71,2016.08L8159.74,2015.83L8159.78,2015.58L8159.81,2015.33L8159.84,2015.08L8159.87,2014.82L8159.9,2014.57L8159.92,2014.32L8159.95,2014.06L8159.97,2013.81L8159.99,2013.55L8160.02,2013.3L8160.03,2013.04L8160.05,2012.79L8160.07,2012.53L8160.08,2012.27L8160.09,2012.02L8160.1,2011.76L8160.11,2011.5L8160.12,2011.24L8160.13,2010.98L8160.13,2010.72L8160.13,2010.46L8160.13,2010.2L8160.13,2009.94L8160.13,2009.68L8160.13,2009.42L8160.12,2009.16L8160.11,2008.9L8160.1,2008.64L8160.09,2008.39L8160.08,2008.13L8160.07,2007.87L8160.05,2007.62L8160.03,2007.36L8160.02,2007.1L8159.99,2006.85L8159.97,2006.6L8159.95,2006.34L8159.92,2006.09L8159.9,2005.83L8159.87,2005.58L8159.84,2005.33L8159.81,2005.08L8159.78,2004.82L8159.74,2004.57L8159.71,2004.32L8159.67,2004.07L8159.63,2003.82L8159.59,2003.58L8159.55,2003.33L8159.5,2003.08L8159.46,2002.83L8159.41,2002.58L8159.36,2002.34L8159.31,2002.09L8159.26,2001.85L8159.21,2001.6L8159.16,2001.36L8159.1,2001.12L8159.04,2000.87L8158.99,2000.63L8158.93,2000.39L8158.86,2000.15L8158.8,1999.91L8158.74,1999.67L8158.67,1999.43L8158.61,1999.19L8158.54,1998.95L8158.47,1998.71L8158.4,1998.47L8158.32,1998.24L8158.25,1998L8158.17,1997.77L8158.1,1997.53L8158.02,1997.3L8157.94,1997.07L8157.86,1996.83L8157.77,1996.6L8157.69,1996.37L8157.6,1996.14L8157.52,1995.91L8157.43,1995.68L8157.34,1995.45L8157.25,1995.22L8157.16,1995L8157.06,1994.77L8156.97,1994.54L8156.87,1994.32L8156.77,1994.09L8156.68,1993.87L8156.58,1993.64L8156.47,1993.42L8156.37,1993.2L8156.27,1992.98L8156.16,1992.76L8156.06,1992.54L8155.95,1992.32L8155.84,1992.1L8155.73,1991.89L8155.62,1991.67L8155.5,1991.45L8155.39,1991.24L8155.27,1991.03L8155.16,1990.81L8155.04,1990.6L8154.92,1990.39L8154.8,1990.18L8154.68,1989.97L8154.55,1989.76L8154.43,1989.55L8154.3,1989.34L8154.18,1989.13L8154.05,1988.92L8153.92,1988.72L8153.79,1988.52L8153.66,1988.31L8153.53,1988.11L8153.39,1987.91L8153.26,1987.71L8153.12,1987.51L8152.98,1987.31L8152.84,1987.11L8152.7,1986.91L8152.56,1986.71L8152.42,1986.52L8152.28,1986.32L8152.13,1986.13L8151.99,1985.93L8151.84,1985.74L8151.69,1985.55L8151.54,1985.36L8151.39,1985.17L8151.24,1984.98L8151.09,1984.79L8150.94,1984.61L8150.78,1984.42L8150.63,1984.24L8150.47,1984.05L8150.31,1983.87L8150.15,1983.69L8149.99,1983.51L8149.83,1983.33L8149.67,1983.14L8149.51,1982.97L8149.34,1982.79L8149.18,1982.61L8149.01,1982.44L8148.85,1982.26L8148.68,1982.09L8148.51,1981.92L8148.34,1981.75L8148.17,1981.58L8147.99,1981.41L8147.82,1981.24L8147.65,1981.07L8147.47,1980.91L8147.3,1980.74L8147.12,1980.58L8146.94,1980.41L8146.76,1980.25L8146.58,1980.09L8146.4,1979.93L8146.22,1979.77L8146.03,1979.61L8145.85,1979.46L8145.66,1979.3L8145.48,1979.15L8145.29,1978.99L8145.1,1978.84L8144.91,1978.69L8144.73,1978.54L8144.53,1978.39L8144.34,1978.24L8144.15,1978.1L8143.96,1977.95L8143.76,1977.81L8143.57,1977.66L8143.37,1977.52L8143.18,1977.38L8142.98,1977.24L8142.78,1977.1L8142.58,1976.97L8142.38,1976.83L8142.18,1976.69L8141.98,1976.56L8141.77,1976.43L8141.57,1976.3L8141.36,1976.16L8141.16,1976.04L8140.95,1975.91L8140.75,1975.78L8140.54,1975.66L8140.33,1975.53L8140.12,1975.41L8139.91,1975.29L8139.7,1975.17L8139.49,1975.05L8139.27,1974.93L8139.06,1974.81L8138.85,1974.7L8138.63,1974.58L8138.41,1974.47L8138.2,1974.36L8137.98,1974.25L8137.76,1974.14L8137.54,1974.03L8137.32,1973.92L8137.11,1973.82L8136.88,1973.71L8136.66,1973.61L8136.44,1973.51L8136.22,1973.41L8135.99,1973.31L8135.77,1973.21L8135.54,1973.12L8135.32,1973.02L8135.09,1972.93L8134.86,1972.84L8134.64,1972.75L8134.41,1972.66L8134.18,1972.57L8133.95,1972.48L8133.72,1972.4L8133.48,1972.31L8133.25,1972.23L8133.02,1972.15L8132.79,1972.07L8132.55,1971.99L8132.32,1971.91L8132.08,1971.84L8131.85,1971.76L8131.61,1971.69L8131.37,1971.62L8131.14,1971.55L8130.9,1971.48L8130.66,1971.41L8130.42,1971.35L8130.18,1971.28L8129.94,1971.22L8129.7,1971.16L8129.45,1971.1L8129.21,1971.04L8128.97,1970.98L8128.73,1970.93L8128.48,1970.87L8128.24,1970.82L8127.99,1970.77L8127.75,1970.72L8127.5,1970.67L8127.25,1970.63L8127.01,1970.58L8126.76,1970.54L8126.51,1970.5L8126.26,1970.46L8126.01,1970.42L8125.76,1970.38L8125.51,1970.34L8125.26,1970.31L8125.01,1970.28L8124.76,1970.25L8124.51,1970.22L8124.25,1970.19L8124,1970.16L8123.74,1970.13L8123.49,1970.11L8123.24,1970.09L8122.98,1970.07L8122.73,1970.05L8122.47,1970.03L8122.21,1970.02L8121.95,1970.01L8121.7,1969.99L8121.44,1969.98L8121.18,1969.97L8120.92,1969.97L8120.66,1969.96L8120.4,1969.96L8120.14,1969.95L8119.88,1969.95L8119.62,1969.95Z" style="fill:rgb(14,99,238);"/>
            </g>
        </g>
    </g>
</svg>
