<?xml version="1.0" encoding="UTF-8" standalone="no"?>
<!DOCTYPE svg PUBLIC "-//W3C//DTD SVG 1.1//EN" "http://www.w3.org/Graphics/SVG/1.1/DTD/svg11.dtd">
<svg width="100%" height="100%" viewBox="0 0 52 49" version="1.1" xmlns="http://www.w3.org/2000/svg" xmlns:xlink="http://www.w3.org/1999/xlink" xml:space="preserve" xmlns:serif="http://www.serif.com/" style="fill-rule:evenodd;clip-rule:evenodd;stroke-linecap:round;stroke-miterlimit:1.5;">
    <g transform="matrix(1,0,0,1,-404,-501)">
        <g transform="matrix(2.1107,0,0,1.42024,300.755,1942.52)">
            <g id="расписание" transform="matrix(0.473776,0,0,0.704104,60.5541,-136.175)">
                <g transform="matrix(0.923077,0,0,0.953294,-134.163,-1362.13)">
                    <path d="M172.978,120L120.978,120C120.978,120 120.978,150.551 120.978,164.058C120.978,167.534 123.888,170.352 127.478,170.352C137.469,170.352 156.488,170.352 166.478,170.352C170.068,170.352 172.978,167.534 172.978,164.058C172.978,150.551 172.978,120 172.978,120Z" style="fill:none;"/>
                    <clipPath id="_clip1">
                        <path d="M172.978,120L120.978,120C120.978,120 120.978,150.551 120.978,164.058C120.978,167.534 123.888,170.352 127.478,170.352C137.469,170.352 156.488,170.352 166.478,170.352C170.068,170.352 172.978,167.534 172.978,164.058C172.978,150.551 172.978,120 172.978,120Z"/>
                    </clipPath>
                    <g clip-path="url(#_clip1)">
                        <g transform="matrix(2.09212,0,0,1.90914,-4529.84,-2308.9)">
                            <circle cx="2239.75" cy="1289.75" r="1.75" style="fill:none;stroke:white;stroke-width:1.07px;"/>
                        </g>
                    </g>
                    <path d="M172.978,164.058L172.978,164.139L172.976,164.22L172.973,164.301L172.97,164.382L172.965,164.462L172.959,164.542L172.953,164.622L172.945,164.701L172.936,164.781L172.926,164.859L172.915,164.938L172.903,165.016L172.891,165.094L172.877,165.172L172.862,165.249L172.846,165.326L172.829,165.403L172.812,165.479L172.793,165.555L172.774,165.631L172.753,165.706L172.732,165.781L172.709,165.855L172.686,165.929L172.662,166.003L172.637,166.076L172.611,166.149L172.584,166.222L172.556,166.294L172.527,166.366L172.498,166.437L172.467,166.508L172.436,166.578L172.404,166.648L172.371,166.717L172.337,166.786L172.303,166.855L172.267,166.923L172.231,166.991L172.194,167.058L172.156,167.125L172.117,167.191L172.078,167.256L172.037,167.321L171.996,167.386L171.954,167.45L171.912,167.514L171.868,167.577L171.824,167.639L171.779,167.701L171.733,167.763L171.687,167.824L171.64,167.884L171.592,167.944L171.543,168.003L171.494,168.061L171.444,168.119L171.393,168.177L171.342,168.234L171.29,168.29L171.237,168.345L171.183,168.4L171.129,168.455L171.074,168.508L171.019,168.561L170.963,168.614L170.906,168.666L170.849,168.717L170.791,168.767L170.732,168.817L170.673,168.866L170.613,168.915L170.552,168.962L170.491,169.009L170.43,169.056L170.367,169.101L170.304,169.146L170.241,169.191L170.177,169.234L170.112,169.277L170.047,169.319L169.982,169.36L169.915,169.401L169.849,169.441L169.781,169.48L169.714,169.518L169.645,169.555L169.577,169.592L169.507,169.628L169.437,169.663L169.367,169.698L169.296,169.731L169.225,169.764L169.153,169.796L169.081,169.827L169.008,169.857L168.935,169.887L168.862,169.915L168.788,169.943L168.713,169.97L168.638,169.996L168.563,170.021L168.487,170.045L168.411,170.069L168.335,170.091L168.258,170.113L168.18,170.134L168.103,170.154L168.025,170.173L167.946,170.191L167.867,170.208L167.788,170.224L167.709,170.239L167.629,170.253L167.549,170.267L167.468,170.279L167.387,170.291L167.306,170.301L167.225,170.311L167.143,170.319L167.061,170.327L166.978,170.333L166.896,170.339L166.813,170.344L166.73,170.347L166.646,170.35L166.562,170.351L166.478,170.352L127.478,170.352L127.394,170.351L127.31,170.35L127.227,170.347L127.144,170.344L127.061,170.339L126.978,170.333L126.896,170.327L126.814,170.319L126.732,170.311L126.65,170.301L126.569,170.291L126.488,170.279L126.408,170.267L126.328,170.253L126.248,170.239L126.168,170.224L126.089,170.208L126.01,170.191L125.932,170.173L125.854,170.154L125.776,170.134L125.699,170.113L125.622,170.091L125.545,170.069L125.469,170.045L125.394,170.021L125.318,169.996L125.243,169.97L125.169,169.943L125.095,169.915L125.021,169.887L124.948,169.857L124.875,169.827L124.803,169.796L124.732,169.764L124.66,169.731L124.589,169.698L124.519,169.663L124.449,169.628L124.38,169.592L124.311,169.555L124.243,169.518L124.175,169.48L124.108,169.441L124.041,169.401L123.975,169.36L123.909,169.319L123.844,169.277L123.779,169.234L123.715,169.191L123.652,169.146L123.589,169.101L123.527,169.056L123.465,169.009L123.404,168.962L123.344,168.915L123.284,168.866L123.224,168.817L123.166,168.767L123.108,168.717L123.05,168.666L122.994,168.614L122.938,168.561L122.882,168.508L122.827,168.455L122.773,168.4L122.72,168.345L122.667,168.29L122.615,168.234L122.563,168.177L122.513,168.119L122.463,168.061L122.413,168.003L122.365,167.944L122.317,167.884L122.27,167.824L122.223,167.763L122.177,167.701L122.133,167.639L122.088,167.577L122.045,167.514L122.002,167.45L121.96,167.386L121.919,167.321L121.879,167.256L121.839,167.191L121.801,167.125L121.763,167.058L121.726,166.991L121.689,166.923L121.654,166.855L121.619,166.786L121.585,166.717L121.552,166.648L121.52,166.578L121.489,166.508L121.459,166.437L121.429,166.366L121.4,166.294L121.373,166.222L121.346,166.149L121.32,166.076L121.295,166.003L121.27,165.929L121.247,165.855L121.225,165.781L121.203,165.706L121.183,165.631L121.163,165.555L121.145,165.479L121.127,165.403L121.11,165.326L121.095,165.249L121.08,165.172L121.066,165.094L121.053,165.016L121.041,164.938L121.03,164.859L121.021,164.781L121.012,164.701L121.004,164.622L120.997,164.542L120.991,164.462L120.987,164.382L120.983,164.301L120.98,164.22L120.979,164.139L120.978,164.058L120.978,120L172.978,120L172.978,164.058ZM123.145,122.098L123.145,164.051L123.145,164.113L123.146,164.167L123.148,164.221L123.151,164.276L123.154,164.329L123.158,164.382L123.162,164.436L123.167,164.49L123.173,164.542L123.18,164.595L123.187,164.647L123.195,164.699L123.204,164.751L123.213,164.803L123.223,164.855L123.233,164.906L123.244,164.956L123.256,165.008L123.268,165.058L123.281,165.108L123.295,165.158L123.309,165.208L123.324,165.257L123.339,165.306L123.356,165.356L123.372,165.404L123.389,165.452L123.407,165.501L123.426,165.549L123.445,165.596L123.464,165.644L123.485,165.69L123.505,165.737L123.527,165.784L123.549,165.83L123.571,165.876L123.594,165.921L123.618,165.967L123.642,166.012L123.667,166.056L123.692,166.101L123.718,166.145L123.744,166.188L123.771,166.232L123.798,166.275L123.826,166.318L123.855,166.36L123.884,166.402L123.913,166.444L123.943,166.485L123.974,166.527L124.005,166.567L124.036,166.607L124.068,166.647L124.101,166.687L124.134,166.726L124.167,166.765L124.201,166.803L124.235,166.841L124.27,166.878L124.306,166.916L124.341,166.953L124.378,166.989L124.414,167.025L124.451,167.06L124.489,167.095L124.527,167.13L124.565,167.164L124.604,167.198L124.643,167.231L124.683,167.264L124.723,167.297L124.763,167.328L124.804,167.36L124.846,167.391L124.887,167.421L124.929,167.451L124.971,167.481L125.014,167.51L125.057,167.538L125.1,167.566L125.144,167.594L125.188,167.621L125.233,167.648L125.278,167.674L125.323,167.699L125.369,167.724L125.414,167.749L125.46,167.772L125.507,167.796L125.554,167.819L125.601,167.841L125.648,167.863L125.696,167.884L125.744,167.905L125.792,167.925L125.841,167.945L125.889,167.963L125.939,167.982L125.988,168L126.038,168.017L126.088,168.034L126.139,168.05L126.189,168.066L126.239,168.08L126.291,168.095L126.342,168.109L126.393,168.122L126.445,168.134L126.498,168.146L126.55,168.158L126.603,168.168L126.656,168.179L126.709,168.188L126.762,168.197L126.816,168.205L126.87,168.213L126.924,168.22L126.978,168.226L127.032,168.232L127.087,168.237L127.142,168.241L127.198,168.245L127.254,168.248L127.309,168.251L127.365,168.252L127.422,168.253L127.485,168.254L166.471,168.254L166.535,168.253L166.591,168.252L166.647,168.251L166.703,168.248L166.758,168.245L166.814,168.241L166.869,168.237L166.924,168.232L166.979,168.226L167.033,168.22L167.087,168.213L167.141,168.205L167.195,168.197L167.248,168.188L167.301,168.179L167.354,168.168L167.407,168.158L167.459,168.146L167.511,168.134L167.563,168.122L167.614,168.109L167.666,168.095L167.717,168.08L167.768,168.065L167.818,168.05L167.868,168.034L167.919,168.017L167.968,168L168.018,167.982L168.067,167.963L168.115,167.945L168.164,167.925L168.213,167.905L168.261,167.884L168.308,167.863L168.355,167.841L168.403,167.819L168.45,167.796L168.496,167.772L168.542,167.749L168.588,167.724L168.634,167.699L168.679,167.674L168.723,167.648L168.768,167.621L168.812,167.594L168.856,167.566L168.9,167.538L168.943,167.51L168.985,167.481L169.028,167.451L169.07,167.421L169.111,167.391L169.153,167.36L169.193,167.328L169.234,167.297L169.274,167.264L169.314,167.231L169.352,167.198L169.391,167.164L169.43,167.13L169.468,167.095L169.505,167.06L169.542,167.025L169.579,166.989L169.615,166.953L169.651,166.916L169.686,166.879L169.721,166.841L169.756,166.803L169.79,166.764L169.823,166.726L169.856,166.687L169.888,166.647L169.92,166.607L169.952,166.567L169.983,166.526L170.014,166.485L170.043,166.444L170.073,166.403L170.102,166.36L170.13,166.318L170.158,166.275L170.186,166.232L170.212,166.188L170.239,166.145L170.265,166.101L170.29,166.057L170.314,166.012L170.339,165.967L170.362,165.921L170.385,165.876L170.408,165.83L170.43,165.783L170.451,165.737L170.472,165.69L170.492,165.643L170.512,165.596L170.531,165.549L170.549,165.5L170.567,165.452L170.584,165.404L170.601,165.356L170.617,165.306L170.633,165.257L170.647,165.208L170.662,165.158L170.675,165.108L170.688,165.058L170.701,165.007L170.712,164.957L170.723,164.906L170.734,164.854L170.744,164.803L170.753,164.752L170.761,164.7L170.769,164.647L170.777,164.595L170.783,164.542L170.789,164.489L170.794,164.436L170.799,164.383L170.803,164.329L170.806,164.276L170.808,164.221L170.81,164.167L170.811,164.113L170.812,164.051L170.812,122.098L123.145,122.098Z" style="fill:white;"/>
                </g>
                <g transform="matrix(0.996901,0,0,1,-143.115,-1366.74)">
                    <rect x="121" y="134" width="48" height="2" style="fill:white;"/>
                </g>
                <g transform="matrix(0.5,0,0,0.5,-78.9687,-1295.74)">
                    <circle cx="129" cy="144" r="4" style="fill:white;"/>
                </g>
                <g transform="matrix(0.5,0,0,0.5,-78.9687,-1287.74)">
                    <circle cx="129" cy="144" r="4" style="fill:white;"/>
                </g>
                <g transform="matrix(0.5,0,0,0.5,-78.9687,-1279.74)">
                    <circle cx="129" cy="144" r="4" style="fill:white;"/>
                </g>
                <g transform="matrix(0.5,0,0,0.5,-70.9687,-1295.74)">
                    <circle cx="129" cy="144" r="4" style="fill:white;"/>
                </g>
                <g transform="matrix(0.5,0,0,0.5,-70.9687,-1287.74)">
                    <circle cx="129" cy="144" r="4" style="fill:white;"/>
                </g>
                <g transform="matrix(0.5,0,0,0.5,-70.9687,-1279.74)">
                    <circle cx="129" cy="144" r="4" style="fill:white;"/>
                </g>
                <g transform="matrix(0.5,0,0,0.5,-62.9687,-1295.74)">
                    <circle cx="129" cy="144" r="4" style="fill:white;"/>
                </g>
                <g transform="matrix(0.5,0,0,0.5,-62.9687,-1287.74)">
                    <circle cx="129" cy="144" r="4" style="fill:white;"/>
                </g>
                <g transform="matrix(0.5,0,0,0.5,-62.9687,-1279.74)">
                    <circle cx="129" cy="144" r="4" style="fill:white;"/>
                </g>
                <g transform="matrix(0.5,0,0,0.5,-46.9687,-1295.74)">
                    <circle cx="129" cy="144" r="4" style="fill:white;"/>
                </g>
                <g transform="matrix(0.5,0,0,0.5,-46.9687,-1287.74)">
                    <circle cx="129" cy="144" r="4" style="fill:white;"/>
                </g>
                <g transform="matrix(0.5,0,0,0.5,-54.9687,-1295.74)">
                    <circle cx="129" cy="144" r="4" style="fill:white;"/>
                </g>
                <g transform="matrix(1,0,0,1,-143.469,-1367.74)">
                    <rect x="129" y="127" width="32" height="2" style="fill:white;"/>
                </g>
            </g>
        </g>
    </g>
</svg>
